<?xml version="1.0" encoding="utf-8"?>
<svg id="svg2" width="240mm" height="240mm" viewBox="0 0 850.3937 850.3937" xmlns="http://www.w3.org/2000/svg" xmlns:bx="https://boxy-svg.com">
  <defs id="defs4">
    <linearGradient id="gradient-1" gradientUnits="userSpaceOnUse" x1="355.37" y1="474.468" x2="355.37" y2="775.261" gradientTransform="matrix(-0.095467, -0.995433, 2.565822, -0.246074, -1176.644637, 1211.732558)">
      <stop style="stop-color: rgba(65, 41, 0, 0.188235);" offset="0"/>
      <stop style="stop-color: rgba(65, 41, 0, 0.772549);" offset="1"/>
    </linearGradient>
  </defs>
  <g id="layer2" style="display:inline" transform="translate(0,-201.9685)"/>
  <g id="layer4" style="display:inline" transform="translate(0,-201.9685)">
    <path style="display:inline;fill:#41b2ff;fill-opacity:0.99393939;stroke:none" d="m 428.92383,238.48047 c -1.6407,0.001 -3.28434,0.0133 -4.92969,0.0352 C 213.3893,241.31748 44.923886,414.30104 47.697266,624.90625 50.470837,835.51145 223.43348,1004.0009 434.03906,1001.2559 644.64516,998.51129 813.15822,825.5713 810.44141,614.96484 l -0.004,-0.20703 C 807.62877,405.79922 637.29194,238.34765 428.92383,238.48047 Z" id="rect4247"/>
    <path style="display: inline; fill: rgb(80, 150, 200); fill-opacity: 1; fill-rule: evenodd; stroke: none; stroke-width: 1px; stroke-linecap: butt; stroke-linejoin: miter; stroke-opacity: 1; opacity: 0.1;" d="m 428.92383,238.48047 c -1.6407,0.001 -3.28434,0.0133 -4.92969,0.0352 -52.46973,0.69805 -102.32225,11.9617 -147.56445,31.73633 102.06833,17.60695 269.41958,73.73803 305.92383,252.72852 l 225.29296,143.55664 c 2.05882,-16.8816 3.02037,-34.09624 2.79493,-51.57227 l -0.004,-0.20703 C 807.62877,405.79922 637.29194,238.34765 428.92383,238.48047 Z" id="path6598-1"/>
    <path style="display: inline; fill: rgb(255, 208, 134); fill-opacity: 1; fill-rule: evenodd; stroke: none; stroke-width: 1px; stroke-linecap: butt; stroke-linejoin: miter; stroke-opacity: 1; opacity: 0.5;" d="M 585.16992,524.91211 C 447.41745,738.84015 285.93093,797.68142 93.347656,801.03711 158.66452,921.84083 287.20038,1003.1698 434.03906,1001.2559 607.56851,998.99446 752.51317,881.18488 796.65234,721.9668 c -2.6864,-6.57764 -6.20106,-13.62037 -10.8164,-21.13477 C 768.68987,677.03878 709.10478,568.47721 585.16992,524.91211 Z" id="path3338"/>
    <path style="display: inline; fill: rgb(39, 11, 11); fill-opacity: 0.993939; fill-rule: evenodd; stroke: none; stroke-width: 1px; stroke-linecap: butt; stroke-linejoin: miter; stroke-opacity: 1; opacity: 0;" d="m 586.25391,524.11523 c -21.57163,126.33825 -108.2801,230.35644 -87.66993,311.48633 26.06387,102.59778 -79.12567,125.91326 -164.61132,153.74024 31.95064,8.20311 65.502,12.3646 100.0664,11.9141 200.01324,-2.60657 362.05355,-158.7197 375.52149,-354.81645 -16.36318,-4.66228 -32.1351,-11.75072 -42.83789,-23.69336 -32.6877,-36.47436 -116.60579,-76.182 -180.46875,-98.63086 z" id="path3338-8"/>
    <path style="display: inline; fill: rgb(205, 138, 3); fill-opacity: 0.993939; fill-rule: evenodd; stroke: none; stroke-width: 1px; stroke-linecap: butt; stroke-linejoin: miter; stroke-opacity: 1; opacity: 0;" d="m 584.99609,531.33008 c -26.42158,62.17296 -14.83089,66.98582 -37.91601,116.64258 -14.17092,30.48206 -17.33296,46.71697 -38.17188,103.35156 L 768.68555,793.625 c 0.9031,-1.76161 1.79166,-3.53131 2.66797,-5.30859 0.11251,-0.2282 0.22386,-0.4571 0.33593,-0.68555 0.74115,-1.5108 1.47173,-3.02889 2.19336,-4.55078 0.15212,-0.32079 0.30383,-0.64161 0.45508,-0.96289 0.81083,-1.72247 1.61278,-3.44918 2.39844,-5.18555 0.81608,-1.80361 1.61563,-3.61525 2.40429,-5.43359 0.10093,-0.23267 0.20031,-0.46631 0.30079,-0.69922 0.70062,-1.62429 1.38978,-3.25484 2.06836,-4.89063 0.0851,-0.20516 0.17108,-0.40989 0.25585,-0.61523 0.75277,-1.82369 1.49557,-3.65256 2.22071,-5.49024 0.74585,-1.89017 1.47506,-3.78866 2.1914,-5.69335 0.0436,-0.11584 0.0874,-0.23177 0.13086,-0.34766 0.64073,-1.70872 1.26799,-3.42437 1.88477,-5.14453 0.099,-0.27607 0.19849,-0.55177 0.29687,-0.82813 1.34147,-3.76877 2.62647,-7.56487 3.85157,-11.38672 0.008,-0.0255 0.0172,-0.0507 0.0254,-0.0762 0.0156,-0.0486 0.0294,-0.0979 0.0449,-0.14648 0.5996,-1.87449 1.18462,-3.75378 1.75586,-5.64063 0.0327,-0.10803 0.065,-0.21614 0.0977,-0.32422 1.1856,-3.92878 2.31202,-7.88466 3.37305,-11.86523 0.007,-0.0247 0.0129,-0.0495 0.0195,-0.0742 0.0125,-0.0468 0.0247,-0.0938 0.0371,-0.14062 0.52168,-1.96173 1.02656,-3.92847 1.51758,-5.90235 0.004,-0.0176 0.009,-0.0351 0.0137,-0.0527 0.003,-0.0124 0.007,-0.0247 0.01,-0.0371 1.01021,-4.06523 1.95547,-8.15656 2.83398,-12.27149 C 737.8798,634.95587 692.83855,571.9745 584.99609,531.33008 Z" id="path3338-8-0"/>
    <path style="display: inline; fill: rgb(64, 40, 1); fill-opacity: 0.993939; fill-rule: evenodd; stroke: none; stroke-width: 1px; stroke-linecap: butt; stroke-linejoin: miter; stroke-opacity: 1; opacity: 0;" d="m 555.26038,628.99723 -10.44593,16.98129 c -2.50357,15.42044 -19.92944,49.42676 -41.29492,110.74414 -29.11835,83.56757 66.82865,38.28295 73.67969,41.38281 64.6125,29.23493 132.91974,31.41069 179.60937,16.95117 16.45351,-27.56961 29.52066,-57.37807 38.64063,-88.8457 -281.04013,-47.3816 23.76693,-25.38857 -240.18884,-97.21371 z" id="path3338-8-0-6"/>
    <path style="display: inline; fill: rgb(251, 188, 56); fill-opacity: 0.993939; fill-rule: evenodd; stroke: none; stroke-width: 1px; stroke-linecap: butt; stroke-linejoin: miter; stroke-opacity: 1; opacity: 0;" d="m 504.68359,865.61328 c -22.81492,71.32292 -112.93496,103.95373 -173.36328,123.0293 32.7455,8.66079 67.19526,13.07632 102.71875,12.61332 97.62636,-1.27228 186.20324,-39.11993 252.87696,-100.33402 -50.96384,-3.16822 -102.74996,-5.35269 -182.23243,-35.3086 z" id="path3338-8-0-2"/>
    <path style="display: inline; fill: rgb(252, 194, 77); fill-opacity: 0.993939; fill-rule: evenodd; stroke: none; stroke-width: 1px; stroke-linecap: butt; stroke-linejoin: miter; stroke-opacity: 1; opacity: 0;" d="m 497.01953,776.20508 c -0.24187,19.10857 -15.69269,67.67827 4.86524,95.17578 13.90919,18.6044 105.68907,21.5062 170.4414,42.27734 37.49477,-31.08628 68.92344,-69.20103 92.28125,-112.29297 -88.15778,0.4392 -173.3807,10.34531 -267.58789,-25.16015 z" id="path3338-8-0-2-8"/>
    <path d="M 349.689 541.707 C 334.082 541.707 321.906 548.097 313.159 560.877 C 304.419 573.664 300.049 591.29 300.049 613.757 C 300.049 660.464 317.812 683.817 353.339 683.817 C 364.072 683.817 374.476 682.32 384.549 679.327 C 394.622 676.34 404.749 672.744 414.929 668.537 L 414.929 723.987 C 394.676 732.954 371.766 737.437 346.199 737.437 C 309.566 737.437 281.482 726.814 261.949 705.567 C 242.416 684.314 232.649 653.6 232.649 613.427 C 232.649 588.3 237.379 566.22 246.839 547.187 C 256.299 528.147 269.912 513.51 287.679 503.277 C 305.446 493.037 326.336 487.917 350.349 487.917 C 376.582 487.917 401.652 493.617 425.559 505.017 L 405.469 556.647 C 396.502 552.44 387.536 548.897 378.569 546.017 C 369.609 543.144 359.982 541.707 349.689 541.707 ZM 604.175 676.347 C 604.175 696.487 597.312 711.704 583.585 721.997 C 569.858 732.29 550.158 737.437 524.485 737.437 C 510.538 737.437 498.418 736.69 488.125 735.197 C 477.832 733.704 467.318 730.964 456.585 726.977 L 456.585 675.017 C 466.658 679.444 477.698 683.097 489.705 685.977 C 501.712 688.85 512.418 690.287 521.825 690.287 C 535.885 690.287 542.915 687.077 542.915 680.657 C 542.915 677.337 540.948 674.377 537.015 671.777 C 533.088 669.177 521.662 664.114 502.735 656.587 C 485.468 649.507 473.405 641.457 466.545 632.437 C 459.685 623.417 456.255 611.987 456.255 598.147 C 456.255 580.66 463.005 567.047 476.505 557.307 C 490.005 547.567 509.098 542.697 533.785 542.697 C 546.178 542.697 557.825 544.054 568.725 546.767 C 579.625 549.48 590.942 553.437 602.675 558.637 L 585.075 600.477 C 576.442 596.604 567.312 593.31 557.685 590.597 C 548.058 587.884 540.202 586.527 534.115 586.527 C 523.488 586.527 518.175 589.127 518.175 594.327 C 518.175 597.54 520.028 600.28 523.735 602.547 C 527.442 604.82 538.152 609.44 555.865 616.407 C 569.032 621.834 578.852 627.147 585.325 632.347 C 591.798 637.554 596.558 643.67 599.605 650.697 C 602.652 657.724 604.175 666.274 604.175 676.347 Z" transform="matrix(1, 0, 0, 1, 0, 0)" style="text-transform: none; fill: rgb(65, 41, 1);"/>
  </g>
  <g id="layer8" style="display:inline" transform="translate(0,-201.9685)"/>
  <path style="display: inline; fill: rgb(65, 41, 1); fill-opacity: 1; fill-rule: evenodd; stroke: none; stroke-width: 1px; stroke-linecap: butt; stroke-linejoin: miter; stroke-opacity: 1; opacity: 0.77;" id="path-2" d="M 416.186 516.696 C 414.94 516.697 413.693 516.707 412.443 516.723 C 372.611 517.254 334.766 525.805 300.421 540.817 C 528.027 467.527 671.776 601.784 695.857 803.463 L 705.809 802.346 C 684.932 618.419 574.365 516.594 416.186 516.696 Z" transform="matrix(-0.52273, 0.852498, -0.852498, -0.52273, 1307.866686, 538.782635)" bx:origin="0.5 0.5"/>
  <path style="display: inline; fill: rgb(65, 41, 1); fill-opacity: 1; fill-rule: evenodd; stroke: none; stroke-width: 1px; stroke-linecap: butt; stroke-linejoin: miter; stroke-opacity: 1; opacity: 0.58;" id="path-18" d="M 133.277 256.562 C 132.031 256.564 130.784 256.575 129.534 256.591 C 89.702 257.122 51.856 265.671 17.511 280.684 C 245.12 207.393 388.87 341.656 412.951 543.338 L 422.903 542.221 C 402.026 358.291 291.458 256.462 133.277 256.562 Z" transform="matrix(-0.619593, -0.784923, 0.784923, -0.619593, 62.012683, 780.784972)" bx:origin="0.5 0.5"/>
  <path style="display: inline; fill: rgb(65, 41, 1); fill-opacity: 1; fill-rule: evenodd; stroke: none; stroke-width: 1px; stroke-linecap: butt; stroke-linejoin: miter; stroke-opacity: 1; opacity: 0.52;" id="path-19" d="M 490.487 180.92 C 489.241 180.922 487.994 180.931 486.744 180.948 C 446.912 181.478 409.066 190.029 374.721 205.04 C 602.329 131.751 746.08 266.008 770.161 467.685 L 780.112 466.568 C 759.236 282.643 648.667 180.818 490.487 180.92 Z" transform="matrix(0.981621, -0.190839, 0.190839, 0.981621, -46.585764, 115.702062)" bx:origin="0.5 0.5"/>
  <path style="fill: url(#gradient-1); opacity: 1;" d="M 752.9 775.261 C 798.663 716.329 797.709 646.108 730.773 582.819 C 659.854 515.775 528.784 474.468 386.936 474.468 C 98.448 474.472 -87.923 635.36 20.59 774.902 C -61.861 639.701 116.336 490.694 386.934 490.692 C 524.861 490.694 652.31 531.801 721.271 598.53 C 780.966 656.298 786.689 719.876 752.9 775.261 Z" transform="matrix(0.866028, -0.499996, 0.499996, 0.866028, -249.011303, 19.604386)" bx:origin="0 0"/>
  <path style="fill: rgb(65, 41, 1); opacity: 0.77;" d="M 1477.675 245.121 C 1523.439 186.189 1522.485 115.969 1455.536 52.68 C 1384.616 -14.363 1253.551 -55.662 1111.711 -55.662 C 823.232 -55.662 636.863 105.222 745.379 244.758 C 662.925 109.559 841.121 -39.444 1111.711 -39.444 C 1249.63 -39.444 1377.075 1.661 1446.034 68.388 C 1505.737 126.159 1511.465 189.735 1477.675 245.121 Z" transform="matrix(0, 1, -1, 0, 581.200962, -692.524966)" bx:origin="0 0"/>
  <path style="fill: rgb(65, 41, 1); opacity: 0.56;" d="M 1559.953 1163.828 C 1605.719 1104.891 1604.766 1034.661 1537.817 971.378 C 1466.896 904.336 1335.833 863.044 1193.99 863.047 C 905.508 863.066 719.141 1023.966 827.655 1163.502 C 745.203 1028.302 923.396 879.281 1193.99 879.265 C 1331.911 879.258 1459.354 920.366 1528.316 987.089 C 1588.016 1044.858 1593.742 1108.438 1559.953 1163.828 Z" transform="matrix(-0.866027, -0.499998, 0.499998, -0.866027, 910.416285, 1970.031986)" bx:origin="0 0"/>
  <g id="layer1" style="display:inline" transform="matrix(1, 0, 0, 1, 194.332642, -134.546982)">
    <rect x="227.122" y="153.057" width="22.384" height="24.419" style="display:inline;opacity:1;fill:#ffd086;fill-opacity:1;stroke:none;stroke-width:34.90000153;stroke-miterlimit:4;stroke-dasharray:none;stroke-dashoffset:0;stroke-opacity:0.99607843" id="rect6810-6-9-2-9"/>
    <rect x="367.38" y="282.876" width="30.524" height="30.524" style="display:inline;opacity:1;fill:#fabb37;fill-opacity:1;stroke:none;stroke-width:34.90000153;stroke-miterlimit:4;stroke-dasharray:none;stroke-dashoffset:0;stroke-opacity:0.99607843" id="rect6810-6-9-2-1"/>
    <rect x="-104.397" y="551.688" width="46.803" height="46.803" style="display:inline;opacity:1;fill:#fbc14c;fill-opacity:1;stroke:none;stroke-width:34.90000153;stroke-miterlimit:4;stroke-dasharray:none;stroke-dashoffset:0;stroke-opacity:0.99607843" id="rect6810-6-1"/>
    <rect x="-108.558" y="757.416" width="30.524" height="30.524" style="display:inline;opacity:1;fill:#fabb37;fill-opacity:1;stroke:none;stroke-width:34.90000153;stroke-miterlimit:4;stroke-dasharray:none;stroke-dashoffset:0;stroke-opacity:0.99607843" id="rect6810-6-9-2-1-7"/>
    <rect x="559.136" y="348.17" width="24.419" height="26.454" style="display:inline;opacity:1;fill:#cc8902;fill-opacity:1;stroke:none;stroke-width:34.90000153;stroke-miterlimit:4;stroke-dasharray:none;stroke-dashoffset:0;stroke-opacity:0.99607843" id="rect6810-0-3-5-5"/>
    <rect x="601.591" y="553.079" width="18.314" height="18.314" style="display:inline;opacity:1;fill:#fabb37;fill-opacity:1;stroke:none;stroke-width:34.90000153;stroke-miterlimit:4;stroke-dasharray:none;stroke-dashoffset:0;stroke-opacity:0.99607843" id="rect6810-6-9-2-1-0-7-8"/>
    <rect x="353.079" y="821.769" width="30.524" height="30.524" style="display:inline;opacity:1;fill:#fabb37;fill-opacity:1;stroke:none;stroke-width:34.90000153;stroke-miterlimit:4;stroke-dasharray:none;stroke-dashoffset:0;stroke-opacity:0.99607843" id="rect6810-6-9-2-1-2-9"/>
    <rect x="219.608" y="919.121" width="38.663" height="40.698" style="display:inline;opacity:1;fill:#fbc14c;fill-opacity:1;stroke:none;stroke-width:34.90000153;stroke-miterlimit:4;stroke-dasharray:none;stroke-dashoffset:0;stroke-opacity:0.99607843" id="rect6810-6-1-6-5"/>
    <rect x="-124.567" y="343.173" width="26.454" height="30.524" style="display:inline;opacity:1;fill:#fbc14c;fill-opacity:1;stroke:none;stroke-width:34.90000153;stroke-miterlimit:4;stroke-dasharray:none;stroke-dashoffset:0;stroke-opacity:0.99607843" id="rect6810-6-1-6-3-2"/>
    <rect x="-596.175" y="715.916" width="24.507" height="24.419" style="display:inline;opacity:1;fill:#cc8902;fill-opacity:1;stroke:none;stroke-width:34.90000153;stroke-miterlimit:4;stroke-dasharray:none;stroke-dashoffset:0;stroke-opacity:0.99607843" id="rect6810-0-3-5-4-3-3" transform="matrix(-1, 0, 0, 1, 0, 0)"/>
    <rect x="29.741" y="235.2" width="20.349" height="22.384" style="display:inline;opacity:1;fill:#ffd086;fill-opacity:1;stroke:none;stroke-width:34.90000153;stroke-miterlimit:4;stroke-dasharray:none;stroke-dashoffset:0;stroke-opacity:0.99607843" id="rect6810-6-9-2-9-2-7-8-8-5"/>
    <rect x="-74.063" y="840.294" width="24.507" height="24.419" style="display:inline;opacity:1;fill:#cc8902;fill-opacity:1;stroke:none;stroke-width:34.90000153;stroke-miterlimit:4;stroke-dasharray:none;stroke-dashoffset:0;stroke-opacity:0.99607843" id="rect6810-0-3-5-4-3-3-9" transform="matrix(-1, 0, 0, 1, 0, 0)"/>
  </g>
  <g id="layer5" transform="translate(0,-201.9685)"/>
  <g id="layer3" style="display:inline" transform="translate(0,-201.9685)">
    <path style="opacity:1;fill:none;fill-opacity:0.99393939;stroke:#ffffff;stroke-width:42.09999847;stroke-linecap:round;stroke-miterlimit:4;stroke-dasharray:none;stroke-dashoffset:0;stroke-opacity:1" id="path6212" ry="440" rx="300" cy="492.36221" cx="340" d=""/>
  </g>
</svg>