<?xml version="1.0" encoding="utf-8"?>
<svg id="svg2" width="240mm" height="240mm" viewBox="0 0 850.3937 850.3937" xmlns="http://www.w3.org/2000/svg" xmlns:bx="https://boxy-svg.com">
  <defs id="defs4">
    <style id="bx-google-fonts">@import url(https://fonts.googleapis.com/css?family=Open+Sans:300,300italic,400,400italic,600,600italic,700,700italic,800,800italic);</style>
    <linearGradient id="gradient-1" gradientUnits="userSpaceOnUse" x1="355.37" y1="474.468" x2="355.37" y2="775.261" gradientTransform="matrix(-0.095467, -0.995433, 2.565822, -0.246074, -1176.644637, 1211.732558)">
      <stop style="stop-color: rgba(65, 41, 0, 0.188235);" offset="0"/>
      <stop style="stop-color: rgba(65, 41, 0, 0.772549);" offset="1"/>
    </linearGradient>
  </defs>
  <g id="layer2" style="display:inline" transform="translate(0,-201.9685)"/>
  <g id="layer4" style="display: inline;" transform="matrix(0.97433, 0, 0, 0.97433, 11.091166, -186.013443)">
    <path style="display:inline;fill:#41b2ff;fill-opacity:0.99393939;stroke:none" d="m 428.92383,238.48047 c -1.6407,0.001 -3.28434,0.0133 -4.92969,0.0352 C 213.3893,241.31748 44.923886,414.30104 47.697266,624.90625 50.470837,835.51145 223.43348,1004.0009 434.03906,1001.2559 644.64516,998.51129 813.15822,825.5713 810.44141,614.96484 l -0.004,-0.20703 C 807.62877,405.79922 637.29194,238.34765 428.92383,238.48047 Z" id="rect4247"/>
    <path style="display: inline; fill: rgb(80, 150, 200); fill-opacity: 1; fill-rule: evenodd; stroke: none; stroke-width: 1px; stroke-linecap: butt; stroke-linejoin: miter; stroke-opacity: 1; opacity: 0.1;" d="m 428.92383,238.48047 c -1.6407,0.001 -3.28434,0.0133 -4.92969,0.0352 -52.46973,0.69805 -102.32225,11.9617 -147.56445,31.73633 102.06833,17.60695 269.41958,73.73803 305.92383,252.72852 l 225.29296,143.55664 c 2.05882,-16.8816 3.02037,-34.09624 2.79493,-51.57227 l -0.004,-0.20703 C 807.62877,405.79922 637.29194,238.34765 428.92383,238.48047 Z" id="path6598-1"/>
    <path style="display: inline; fill: rgb(205, 138, 3); fill-opacity: 0.993939; fill-rule: evenodd; stroke: none; stroke-width: 1px; stroke-linecap: butt; stroke-linejoin: miter; stroke-opacity: 1; opacity: 0;" d="m 584.99609,531.33008 c -26.42158,62.17296 -14.83089,66.98582 -37.91601,116.64258 -14.17092,30.48206 -17.33296,46.71697 -38.17188,103.35156 L 768.68555,793.625 c 0.9031,-1.76161 1.79166,-3.53131 2.66797,-5.30859 0.11251,-0.2282 0.22386,-0.4571 0.33593,-0.68555 0.74115,-1.5108 1.47173,-3.02889 2.19336,-4.55078 0.15212,-0.32079 0.30383,-0.64161 0.45508,-0.96289 0.81083,-1.72247 1.61278,-3.44918 2.39844,-5.18555 0.81608,-1.80361 1.61563,-3.61525 2.40429,-5.43359 0.10093,-0.23267 0.20031,-0.46631 0.30079,-0.69922 0.70062,-1.62429 1.38978,-3.25484 2.06836,-4.89063 0.0851,-0.20516 0.17108,-0.40989 0.25585,-0.61523 0.75277,-1.82369 1.49557,-3.65256 2.22071,-5.49024 0.74585,-1.89017 1.47506,-3.78866 2.1914,-5.69335 0.0436,-0.11584 0.0874,-0.23177 0.13086,-0.34766 0.64073,-1.70872 1.26799,-3.42437 1.88477,-5.14453 0.099,-0.27607 0.19849,-0.55177 0.29687,-0.82813 1.34147,-3.76877 2.62647,-7.56487 3.85157,-11.38672 0.008,-0.0255 0.0172,-0.0507 0.0254,-0.0762 0.0156,-0.0486 0.0294,-0.0979 0.0449,-0.14648 0.5996,-1.87449 1.18462,-3.75378 1.75586,-5.64063 0.0327,-0.10803 0.065,-0.21614 0.0977,-0.32422 1.1856,-3.92878 2.31202,-7.88466 3.37305,-11.86523 0.007,-0.0247 0.0129,-0.0495 0.0195,-0.0742 0.0125,-0.0468 0.0247,-0.0938 0.0371,-0.14062 0.52168,-1.96173 1.02656,-3.92847 1.51758,-5.90235 0.004,-0.0176 0.009,-0.0351 0.0137,-0.0527 0.003,-0.0124 0.007,-0.0247 0.01,-0.0371 1.01021,-4.06523 1.95547,-8.15656 2.83398,-12.27149 C 737.8798,634.95587 692.83855,571.9745 584.99609,531.33008 Z" id="path3338-8-0"/>
    <path style="display: inline; fill: rgb(64, 40, 1); fill-opacity: 0.993939; fill-rule: evenodd; stroke: none; stroke-width: 1px; stroke-linecap: butt; stroke-linejoin: miter; stroke-opacity: 1; opacity: 0;" d="m 555.26038,628.99723 -10.44593,16.98129 c -2.50357,15.42044 -19.92944,49.42676 -41.29492,110.74414 -29.11835,83.56757 66.82865,38.28295 73.67969,41.38281 64.6125,29.23493 132.91974,31.41069 179.60937,16.95117 16.45351,-27.56961 29.52066,-57.37807 38.64063,-88.8457 -281.04013,-47.3816 23.76693,-25.38857 -240.18884,-97.21371 z" id="path3338-8-0-6"/>
    <path style="display: inline; fill: rgb(251, 188, 56); fill-opacity: 0.993939; fill-rule: evenodd; stroke: none; stroke-width: 1px; stroke-linecap: butt; stroke-linejoin: miter; stroke-opacity: 1; opacity: 0;" d="m 504.68359,865.61328 c -22.81492,71.32292 -112.93496,103.95373 -173.36328,123.0293 32.7455,8.66079 67.19526,13.07632 102.71875,12.61332 97.62636,-1.27228 186.20324,-39.11993 252.87696,-100.33402 -50.96384,-3.16822 -102.74996,-5.35269 -182.23243,-35.3086 z" id="path3338-8-0-2"/>
    <path style="display: inline; fill: rgb(252, 194, 77); fill-opacity: 0.993939; fill-rule: evenodd; stroke: none; stroke-width: 1px; stroke-linecap: butt; stroke-linejoin: miter; stroke-opacity: 1; opacity: 0;" d="m 497.01953,776.20508 c -0.24187,19.10857 -15.69269,67.67827 4.86524,95.17578 13.90919,18.6044 105.68907,21.5062 170.4414,42.27734 37.49477,-31.08628 68.92344,-69.20103 92.28125,-112.29297 -88.15778,0.4392 -173.3807,10.34531 -267.58789,-25.16015 z" id="path3338-8-0-2-8"/>
  </g>
  <path style="display: inline; fill: rgb(80, 150, 200); fill-opacity: 1; fill-rule: evenodd; stroke: none; stroke-width: 1px; stroke-linecap: butt; stroke-linejoin: miter; stroke-opacity: 1; opacity: 1;" d="M 431.921 49.351 C 430.329 49.352 428.735 49.363 427.14 49.386 C 376.255 50.062 327.907 60.986 284.03 80.164 C 383.017 97.238 545.315 151.675 580.718 325.262 L 799.209 464.484 C 801.203 448.112 802.138 431.417 801.919 414.469 L 801.916 414.268 C 799.192 211.618 633.996 49.222 431.921 49.351 Z" id="path-26" bx:origin="0.5 0.5"/>
  <g transform="matrix(0.969705, 0, 0, 0.969705, -127.242004, -1157.908813)" style="opacity: 1;">
    <g id="g-14" style="display: inline; opacity: 0.5;" transform="matrix(1, 0, 0, 1, 144.570724, 1007.099426)">
      <path style="display:inline;fill:#ffd086;fill-opacity:1;fill-rule:evenodd;stroke:none;stroke-width:1px;stroke-linecap:butt;stroke-linejoin:miter;stroke-opacity:1" d="M 585.16992,524.91211 C 447.41745,738.84015 285.93093,797.68142 93.347656,801.03711 158.66452,921.84083 287.20038,1003.1698 434.03906,1001.2559 607.56851,998.99446 752.51317,881.18488 796.65234,721.9668 c -2.6864,-6.57764 -6.20106,-13.62037 -10.8164,-21.13477 C 768.68987,677.03878 709.10478,568.47721 585.16992,524.91211 Z" id="path-102"/>
      <path style="display:inline;fill:#270b0b;fill-opacity:0.99393939;fill-rule:evenodd;stroke:none;stroke-width:1px;stroke-linecap:butt;stroke-linejoin:miter;stroke-opacity:1" d="M 586.254 524.115 C 564.682 650.453 477.974 754.472 498.584 835.602 C 524.648 938.199 419.458 961.515 333.973 989.342 C 365.923 997.545 399.475 1001.706 434.039 1001.256 C 634.052 998.649 796.093 842.536 809.561 646.439 C 793.197 641.777 777.425 634.689 766.723 622.746 C 734.035 586.272 650.117 546.564 586.254 524.115 Z" id="path-103" bx:origin="0.5 0.5"/>
      <path style="display: inline; fill: rgb(203, 137, 3); fill-opacity: 0.993939; fill-rule: evenodd; stroke: none; stroke-width: 1px; stroke-linecap: butt; stroke-linejoin: miter; stroke-opacity: 1;" d="M 586.254 524.115 C 564.682 650.453 477.974 754.472 498.584 835.602 C 524.648 938.199 419.458 961.515 333.973 989.342 C 365.923 997.545 399.475 1001.706 434.039 1001.256 C 634.052 998.649 796.093 842.536 809.561 646.439 C 793.197 641.777 777.425 634.689 766.723 622.746 C 734.035 586.272 650.117 546.564 586.254 524.115 Z" id="path-104" bx:origin="0.5 0.5"/>
    </g>
    <g id="g-15" style="display: inline; opacity: 0.5;" transform="matrix(1, 0, 0, 1, 144.570724, 1007.099426)">
      <rect x="504.265" y="500.287" width="23.492" height="25.527" style="display:inline;opacity:1;fill:#fabb37;fill-opacity:1;stroke:none;stroke-width:34.90000153;stroke-miterlimit:4;stroke-dasharray:none;stroke-dashoffset:0;stroke-opacity:0.99607843" id="path-105"/>
      <rect x="369.174" y="415.429" width="22.384" height="24.419" style="display:inline;opacity:1;fill:#ffd086;fill-opacity:1;stroke:none;stroke-width:34.90000153;stroke-miterlimit:4;stroke-dasharray:none;stroke-dashoffset:0;stroke-opacity:0.99607843" id="path-106"/>
      <rect x="418.995" y="433.019" width="30.524" height="30.524" style="display:inline;opacity:1;fill:#fabb37;fill-opacity:1;stroke:none;stroke-width:34.90000153;stroke-miterlimit:4;stroke-dasharray:none;stroke-dashoffset:0;stroke-opacity:0.99607843" id="path-107"/>
      <rect x="417.34" y="652.556" width="46.803" height="46.803" style="display:inline;opacity:1;fill:#fbc14c;fill-opacity:1;stroke:none;stroke-width:34.90000153;stroke-miterlimit:4;stroke-dasharray:none;stroke-dashoffset:0;stroke-opacity:0.99607843" id="path-108"/>
      <rect x="422.586" y="475.891" width="30.524" height="30.524" style="display:inline;opacity:1;fill:#fabb37;fill-opacity:1;stroke:none;stroke-width:34.90000153;stroke-miterlimit:4;stroke-dasharray:none;stroke-dashoffset:0;stroke-opacity:0.99607843" id="path-109"/>
      <rect x="472.618" y="605.457" width="24.419" height="26.454" style="display:inline;opacity:1;fill:#cc8902;fill-opacity:1;stroke:none;stroke-width:34.90000153;stroke-miterlimit:4;stroke-dasharray:none;stroke-dashoffset:0;stroke-opacity:0.99607843" id="path-110"/>
      <rect x="520.772" y="557.902" width="18.314" height="18.314" style="display:inline;opacity:1;fill:#fabb37;fill-opacity:1;stroke:none;stroke-width:34.90000153;stroke-miterlimit:4;stroke-dasharray:none;stroke-dashoffset:0;stroke-opacity:0.99607843" id="path-111"/>
      <rect x="454.784" y="563.028" width="30.524" height="30.524" style="display:inline;opacity:1;fill:#fabb37;fill-opacity:1;stroke:none;stroke-width:34.90000153;stroke-miterlimit:4;stroke-dasharray:none;stroke-dashoffset:0;stroke-opacity:0.99607843" id="path-112"/>
      <rect x="335.342" y="720.987" width="38.663" height="40.698" style="display:inline;opacity:1;fill:#fbc14c;fill-opacity:1;stroke:none;stroke-width:34.90000153;stroke-miterlimit:4;stroke-dasharray:none;stroke-dashoffset:0;stroke-opacity:0.99607843" id="path-113"/>
      <rect x="371.97" y="661.975" width="26.454" height="30.524" style="display:inline;opacity:1;fill:#fbc14c;fill-opacity:1;stroke:none;stroke-width:34.90000153;stroke-miterlimit:4;stroke-dasharray:none;stroke-dashoffset:0;stroke-opacity:0.99607843" id="path-114"/>
      <rect x="-427.93" y="610.085" width="24.507" height="24.419" style="display:inline;opacity:1;fill:#cc8902;fill-opacity:1;stroke:none;stroke-width:34.90000153;stroke-miterlimit:4;stroke-dasharray:none;stroke-dashoffset:0;stroke-opacity:0.99607843" id="path-115" transform="scale(-1,1)"/>
      <rect x="480.411" y="523.469" width="20.349" height="22.384" style="display:inline;opacity:1;fill:#ffd086;fill-opacity:1;stroke:none;stroke-width:34.90000153;stroke-miterlimit:4;stroke-dasharray:none;stroke-dashoffset:0;stroke-opacity:0.99607843" id="path-116"/>
      <rect x="-499.5" y="466.314" width="24.507" height="24.419" style="display:inline;opacity:1;fill:#cc8902;fill-opacity:1;stroke:none;stroke-width:34.90000153;stroke-miterlimit:4;stroke-dasharray:none;stroke-dashoffset:0;stroke-opacity:0.99607843" id="path-117" transform="scale(-1,1)"/>
    </g>
    <g id="g-16" style="display: inline; opacity: 1;" transform="matrix(1.0000000700020495, 0, 0, 1.0000000700020495, 144.57072391079612, 1007.0994398715994)">
      <path style="display: inline; fill: none; fill-opacity: 1; fill-rule: evenodd; stroke: rgb(255, 122, 0); stroke-width: 2.34888; stroke-linecap: butt; stroke-linejoin: miter; stroke-opacity: 1;" d="M 585.16992,524.91211 C 447.41745,738.84015 285.93093,797.68142 93.347656,801.03711 158.66452,921.84083 287.20038,1003.1698 434.03906,1001.2559 607.56851,998.99446 752.51317,881.18488 796.65234,721.9668 c -2.6864,-6.57764 -6.20106,-13.62037 -10.8164,-21.13477 C 768.68987,677.03878 709.10478,568.47721 585.16992,524.91211 Z" id="path-118"/>
      <path style="display: inline; fill: none; fill-opacity: 0.993939; fill-rule: evenodd; stroke: rgb(255, 122, 0); stroke-width: 2.34888; stroke-linecap: butt; stroke-linejoin: miter; stroke-opacity: 1;" d="M 586.254 524.115 C 564.682 650.453 477.974 754.472 498.584 835.602 C 524.648 938.199 419.458 961.515 333.973 989.342 C 365.923 997.545 399.475 1001.706 434.039 1001.256 C 634.052 998.649 796.093 842.536 809.561 646.439 C 793.197 641.777 777.425 634.689 766.723 622.746 C 734.035 586.272 650.117 546.564 586.254 524.115 Z" id="path-119" bx:origin="0.5 0.5"/>
      <path style="display: inline; fill: none; fill-opacity: 0.993939; fill-rule: evenodd; stroke: rgb(255, 122, 0); stroke-width: 2.34888; stroke-linecap: butt; stroke-linejoin: miter; stroke-opacity: 1;" d="M 586.254 524.115 C 564.682 650.453 477.974 754.472 498.584 835.602 C 524.648 938.199 419.458 961.515 333.973 989.342 C 365.923 997.545 399.475 1001.706 434.039 1001.256 C 634.052 998.649 796.093 842.536 809.561 646.439 C 793.197 641.777 777.425 634.689 766.723 622.746 C 734.035 586.272 650.117 546.564 586.254 524.115 Z" id="path-120" bx:origin="0.5 0.5"/>
    </g>
  </g>
  <g id="g-2" style="display: inline; opacity: 0.5;" transform="matrix(0.97433, 0, 0, 0.97433, 859.677246, -184.473892)">
    <path style="display: inline; fill: rgb(255, 208, 134); fill-opacity: 1; fill-rule: evenodd; stroke: none; stroke-width: 1px; stroke-linecap: butt; stroke-linejoin: miter; stroke-opacity: 1; opacity: 1;" d="M 585.16992,524.91211 C 447.41745,738.84015 285.93093,797.68142 93.347656,801.03711 158.66452,921.84083 287.20038,1003.1698 434.03906,1001.2559 607.56851,998.99446 752.51317,881.18488 796.65234,721.9668 c -2.6864,-6.57764 -6.20106,-13.62037 -10.8164,-21.13477 C 768.68987,677.03878 709.10478,568.47721 585.16992,524.91211 Z" id="path-20"/>
    <path style="display: inline; fill: rgb(39, 11, 11); fill-opacity: 0.993939; fill-rule: evenodd; stroke: none; stroke-width: 1px; stroke-linecap: butt; stroke-linejoin: miter; stroke-opacity: 1; opacity: 1;" d="m 586.25391,524.11523 c -21.57163,126.33825 -108.2801,230.35644 -87.66993,311.48633 26.06387,102.59778 -79.12567,125.91326 -164.61132,153.74024 31.95064,8.20311 65.502,12.3646 100.0664,11.9141 200.01324,-2.60657 362.05355,-158.7197 375.52149,-354.81645 -16.36318,-4.66228 -32.1351,-11.75072 -42.83789,-23.69336 -32.6877,-36.47436 -116.60579,-76.182 -180.46875,-98.63086 z" id="path-21"/>
    <path style="display: inline; fill: rgb(205, 138, 3); fill-opacity: 0.993939; fill-rule: evenodd; stroke: none; stroke-width: 1px; stroke-linecap: butt; stroke-linejoin: miter; stroke-opacity: 1; opacity: 1;" d="m 584.99609,531.33008 c -26.42158,62.17296 -14.83089,66.98582 -37.91601,116.64258 -14.17092,30.48206 -17.33296,46.71697 -38.17188,103.35156 L 768.68555,793.625 c 0.9031,-1.76161 1.79166,-3.53131 2.66797,-5.30859 0.11251,-0.2282 0.22386,-0.4571 0.33593,-0.68555 0.74115,-1.5108 1.47173,-3.02889 2.19336,-4.55078 0.15212,-0.32079 0.30383,-0.64161 0.45508,-0.96289 0.81083,-1.72247 1.61278,-3.44918 2.39844,-5.18555 0.81608,-1.80361 1.61563,-3.61525 2.40429,-5.43359 0.10093,-0.23267 0.20031,-0.46631 0.30079,-0.69922 0.70062,-1.62429 1.38978,-3.25484 2.06836,-4.89063 0.0851,-0.20516 0.17108,-0.40989 0.25585,-0.61523 0.75277,-1.82369 1.49557,-3.65256 2.22071,-5.49024 0.74585,-1.89017 1.47506,-3.78866 2.1914,-5.69335 0.0436,-0.11584 0.0874,-0.23177 0.13086,-0.34766 0.64073,-1.70872 1.26799,-3.42437 1.88477,-5.14453 0.099,-0.27607 0.19849,-0.55177 0.29687,-0.82813 1.34147,-3.76877 2.62647,-7.56487 3.85157,-11.38672 0.008,-0.0255 0.0172,-0.0507 0.0254,-0.0762 0.0156,-0.0486 0.0294,-0.0979 0.0449,-0.14648 0.5996,-1.87449 1.18462,-3.75378 1.75586,-5.64063 0.0327,-0.10803 0.065,-0.21614 0.0977,-0.32422 1.1856,-3.92878 2.31202,-7.88466 3.37305,-11.86523 0.007,-0.0247 0.0129,-0.0495 0.0195,-0.0742 0.0125,-0.0468 0.0247,-0.0938 0.0371,-0.14062 0.52168,-1.96173 1.02656,-3.92847 1.51758,-5.90235 0.004,-0.0176 0.009,-0.0351 0.0137,-0.0527 0.003,-0.0124 0.007,-0.0247 0.01,-0.0371 1.01021,-4.06523 1.95547,-8.15656 2.83398,-12.27149 C 737.8798,634.95587 692.83855,571.9745 584.99609,531.33008 Z" id="path-22"/>
    <path style="display: inline; fill: rgb(64, 40, 1); fill-opacity: 0.993939; fill-rule: evenodd; stroke: none; stroke-width: 1px; stroke-linecap: butt; stroke-linejoin: miter; stroke-opacity: 1; opacity: 1;" d="m 555.26038,628.99723 -10.44593,16.98129 c -2.50357,15.42044 -19.92944,49.42676 -41.29492,110.74414 -29.11835,83.56757 66.82865,38.28295 73.67969,41.38281 64.6125,29.23493 132.91974,31.41069 179.60937,16.95117 16.45351,-27.56961 29.52066,-57.37807 38.64063,-88.8457 -281.04013,-47.3816 23.76693,-25.38857 -240.18884,-97.21371 z" id="path-23"/>
    <path style="display: inline; fill: rgb(251, 188, 56); fill-opacity: 0.993939; fill-rule: evenodd; stroke: none; stroke-width: 1px; stroke-linecap: butt; stroke-linejoin: miter; stroke-opacity: 1; opacity: 1;" d="m 504.68359,865.61328 c -22.81492,71.32292 -112.93496,103.95373 -173.36328,123.0293 32.7455,8.66079 67.19526,13.07632 102.71875,12.61332 97.62636,-1.27228 186.20324,-39.11993 252.87696,-100.33402 -50.96384,-3.16822 -102.74996,-5.35269 -182.23243,-35.3086 z" id="path-24"/>
    <path style="display: inline; fill: rgb(252, 194, 77); fill-opacity: 0.993939; fill-rule: evenodd; stroke: none; stroke-width: 1px; stroke-linecap: butt; stroke-linejoin: miter; stroke-opacity: 1; opacity: 1;" d="m 497.01953,776.20508 c -0.24187,19.10857 -15.69269,67.67827 4.86524,95.17578 13.90919,18.6044 105.68907,21.5062 170.4414,42.27734 37.49477,-31.08628 68.92344,-69.20103 92.28125,-112.29297 -88.15778,0.4392 -173.3807,10.34531 -267.58789,-25.16015 z" id="path-25"/>
  </g>
  <g id="layer8" style="display:inline" transform="translate(0,-201.9685)"/>
  <path style="display: inline; fill: rgb(80, 150, 200); fill-opacity: 1; fill-rule: evenodd; stroke: none; stroke-width: 1px; stroke-linecap: butt; stroke-linejoin: miter; stroke-opacity: 1; opacity: 0.78;" id="path-10" d="M -781.37 89.626 C -782.616 89.627 -783.863 89.637 -785.113 89.653 C -824.946 90.184 -862.792 98.734 -897.137 113.746 C -669.527 40.457 -525.777 174.715 -501.696 376.394 L -491.743 375.276 C -512.62 191.35 -623.189 89.524 -781.37 89.626 Z" transform="matrix(0.963731, 0.266875, -0.266875, 0.963731, 30.437018, 192.88811)" bx:origin="0.5 0.5"/>
  <path style="display: inline; fill: rgb(65, 41, 1); fill-opacity: 1; fill-rule: evenodd; stroke: none; stroke-width: 1px; stroke-linecap: butt; stroke-linejoin: miter; stroke-opacity: 1; opacity: 0.77;" id="path-2" d="M 416.186 516.696 C 414.94 516.697 413.693 516.707 412.443 516.723 C 372.611 517.254 334.766 525.805 300.421 540.817 C 528.027 467.527 671.776 601.784 695.857 803.463 L 705.809 802.346 C 684.932 618.419 574.365 516.594 416.186 516.696 Z" transform="matrix(-0.52273, 0.852498, -0.852498, -0.52273, 1307.866686, 538.782635)" bx:origin="0.5 0.5"/>
  <path style="display: inline; fill: rgb(80, 150, 200); fill-opacity: 1; fill-rule: evenodd; stroke: none; stroke-width: 1px; stroke-linecap: butt; stroke-linejoin: miter; stroke-opacity: 1; opacity: 1;" id="path-3" d="M -966.499 163.059 C -967.745 163.06 -968.992 163.07 -970.242 163.086 C -1010.074 163.617 -1047.92 172.168 -1082.265 187.179 C -854.657 113.889 -710.907 248.146 -686.826 449.824 L -676.874 448.707 C -697.751 264.781 -808.319 162.956 -966.499 163.059 Z" transform="matrix(-0.180994, -0.983484, 0.983484, -0.180994, -1315.967555, -532.171996)" bx:origin="0.5 0.5"/>
  <path style="display: inline; fill: rgb(80, 150, 200); fill-opacity: 1; fill-rule: evenodd; stroke: none; stroke-width: 1px; stroke-linecap: butt; stroke-linejoin: miter; stroke-opacity: 1; opacity: 0.4;" id="path-11" d="M -734.864 162.395 C -736.11 162.396 -737.357 162.406 -738.607 162.422 C -778.44 162.953 -816.286 171.503 -850.631 186.516 C -623.022 113.226 -479.272 247.483 -455.191 449.162 L -445.238 448.044 C -466.115 264.118 -576.684 162.293 -734.864 162.395 Z" transform="matrix(0.619993, 0.784608, -0.784608, 0.619993, -25.592937, 615.230134)" bx:origin="0.5 0.5"/>
  <path style="display: inline; fill: rgb(80, 150, 200); fill-opacity: 1; fill-rule: evenodd; stroke: none; stroke-width: 1px; stroke-linecap: butt; stroke-linejoin: miter; stroke-opacity: 1; opacity: 0.84;" id="path-12" d="M -864.866 324.868 C -866.112 324.869 -867.359 324.879 -868.609 324.895 C -908.441 325.426 -946.287 333.977 -980.632 348.989 C -753.023 275.699 -609.273 409.956 -585.193 611.635 L -575.24 610.518 C -596.117 426.591 -706.685 324.766 -864.866 324.868 Z" transform="matrix(-0.978847, 0.204593, -0.204593, -0.978847, -1448.645157, 1037.109641)" bx:origin="0.5 0.5"/>
  <path style="display: inline; fill: rgb(80, 150, 200); fill-opacity: 1; fill-rule: evenodd; stroke: none; stroke-width: 1px; stroke-linecap: butt; stroke-linejoin: miter; stroke-opacity: 1; opacity: 0.4;" id="path-13" d="M -958.366 132.396 C -959.612 132.398 -960.859 132.407 -962.109 132.424 C -1001.941 132.954 -1039.787 141.505 -1074.132 156.516 C -846.524 83.229 -702.774 217.485 -678.693 419.162 L -668.741 418.045 C -689.618 234.12 -800.186 132.296 -958.366 132.396 Z" transform="matrix(0.338614, -0.940925, 0.940925, 0.338614, -812.712456, -653.819583)" bx:origin="0.5 0.5"/>
  <path style="display: inline; fill: rgb(80, 150, 200); fill-opacity: 1; fill-rule: evenodd; stroke: none; stroke-width: 1px; stroke-linecap: butt; stroke-linejoin: miter; stroke-opacity: 1; opacity: 1;" id="path-14" d="M -725.858 226.937 C -727.104 226.938 -728.351 226.948 -729.601 226.964 C -769.434 227.495 -807.28 236.044 -841.625 251.058 C -614.015 177.766 -470.264 312.026 -446.183 513.706 L -436.23 512.588 C -457.108 328.661 -567.677 226.835 -725.858 226.937 Z" transform="matrix(0.164659, 0.986351, -0.986351, 0.164659, -192.705471, 919.014032)" bx:origin="0.5 0.5"/>
  <path style="display: inline; fill: rgb(80, 150, 200); fill-opacity: 1; fill-rule: evenodd; stroke: none; stroke-width: 1px; stroke-linecap: butt; stroke-linejoin: miter; stroke-opacity: 1; opacity: 0.4;" id="path-15" d="M -934.694 286.746 C -935.94 286.747 -937.187 286.757 -938.437 286.773 C -978.269 287.304 -1016.115 295.855 -1050.46 310.867 C -822.851 237.577 -679.101 371.835 -655.02 573.514 L -645.068 572.397 C -665.945 388.47 -776.513 286.644 -934.694 286.746 Z" transform="matrix(-0.9314, -0.363996, 0.363996, -0.9314, -1784.98868, 474.687894)" bx:origin="0.5 0.5"/>
  <path style="display: inline; fill: rgb(80, 150, 200); fill-opacity: 1; fill-rule: evenodd; stroke: none; stroke-width: 1px; stroke-linecap: butt; stroke-linejoin: miter; stroke-opacity: 1; opacity: 1;" id="path-16" d="M -915.268 74.872 C -916.513 74.874 -917.76 74.883 -919.01 74.9 C -958.843 75.43 -996.688 83.981 -1031.034 98.993 C -803.426 25.703 -659.676 159.96 -635.595 361.636 L -625.643 360.519 C -646.52 176.595 -757.088 74.77 -915.268 74.872 Z" transform="matrix(0.750464, -0.660911, 0.660911, 0.750464, -334.698597, -499.130761)" bx:origin="0.5 0.5"/>
  <path style="display: inline; fill: rgb(80, 150, 200); fill-opacity: 1; fill-rule: evenodd; stroke: none; stroke-width: 1px; stroke-linecap: butt; stroke-linejoin: miter; stroke-opacity: 1; opacity: 0.4;" id="path-17" d="M -765.937 263.411 C -767.184 263.412 -768.431 263.422 -769.681 263.438 C -809.515 263.97 -847.365 272.521 -881.71 287.534 C -654.093 214.242 -510.34 348.499 -486.263 550.183 L -476.312 549.066 C -497.182 365.134 -607.754 263.309 -765.937 263.411 Z" transform="matrix(-0.356582, 0.934264, -0.934264, -0.356582, -564.046791, 1152.878138)" bx:origin="0.5 0.5"/>
  <path style="display: inline; fill: rgb(65, 41, 1); fill-opacity: 1; fill-rule: evenodd; stroke: none; stroke-width: 1px; stroke-linecap: butt; stroke-linejoin: miter; stroke-opacity: 1; opacity: 0.58;" id="path-18" d="M 133.277 256.562 C 132.031 256.564 130.784 256.575 129.534 256.591 C 89.702 257.122 51.856 265.671 17.511 280.684 C 245.12 207.393 388.87 341.656 412.951 543.338 L 422.903 542.221 C 402.026 358.291 291.458 256.462 133.277 256.562 Z" transform="matrix(-0.619593, -0.784923, 0.784923, -0.619593, 62.012683, 780.784972)" bx:origin="0.5 0.5"/>
  <path style="display: inline; fill: rgb(65, 41, 1); fill-opacity: 1; fill-rule: evenodd; stroke: none; stroke-width: 1px; stroke-linecap: butt; stroke-linejoin: miter; stroke-opacity: 1; opacity: 0.52;" id="path-19" d="M 490.487 180.92 C 489.241 180.922 487.994 180.931 486.744 180.948 C 446.912 181.478 409.066 190.029 374.721 205.04 C 602.329 131.751 746.08 266.008 770.161 467.685 L 780.112 466.568 C 759.236 282.643 648.667 180.818 490.487 180.92 Z" transform="matrix(0.981621, -0.190839, 0.190839, 0.981621, -46.585764, 115.702062)" bx:origin="0.5 0.5"/>
  <text x="-855.794" y="361.48" style="font-size: 150px; font-family: 'Open Sans'; text-transform: none; font-variant: normal; font-weight: 300; fill: rgb(14, 118, 193); word-spacing: 0px;">Cs</text>
  <path style="fill: url(#gradient-1); opacity: 1;" d="M 752.9 775.261 C 798.663 716.329 797.709 646.108 730.773 582.819 C 659.854 515.775 528.784 474.468 386.936 474.468 C 98.448 474.472 -87.923 635.36 20.59 774.902 C -61.861 639.701 116.336 490.694 386.934 490.692 C 524.861 490.694 652.31 531.801 721.271 598.53 C 780.966 656.298 786.689 719.876 752.9 775.261 Z" transform="matrix(0.866028, -0.499996, 0.499996, 0.866028, -249.011303, 19.604386)" bx:origin="0 0"/>
  <path style="fill: rgb(65, 41, 1); opacity: 0.77;" d="M 1477.675 245.121 C 1523.439 186.189 1522.485 115.969 1455.536 52.68 C 1384.616 -14.363 1253.551 -55.662 1111.711 -55.662 C 823.232 -55.662 636.863 105.222 745.379 244.758 C 662.925 109.559 841.121 -39.444 1111.711 -39.444 C 1249.63 -39.444 1377.075 1.661 1446.034 68.388 C 1505.737 126.159 1511.465 189.735 1477.675 245.121 Z" transform="matrix(0, 1, -1, 0, 581.200962, -692.524966)" bx:origin="0 0"/>
  <path style="fill: rgb(65, 41, 1); opacity: 0.56;" d="M 1559.953 1163.828 C 1605.719 1104.891 1604.766 1034.661 1537.817 971.378 C 1466.896 904.336 1335.833 863.044 1193.99 863.047 C 905.508 863.066 719.141 1023.966 827.655 1163.502 C 745.203 1028.302 923.396 879.281 1193.99 879.265 C 1331.911 879.258 1459.354 920.366 1528.316 987.089 C 1588.016 1044.858 1593.742 1108.438 1559.953 1163.828 Z" transform="matrix(-0.866027, -0.499998, 0.499998, -0.866027, 910.416285, 1970.031986)" bx:origin="0 0"/>
  <g id="layer1" style="display:inline" transform="matrix(1, 0, 0, 1, 194.332642, -134.546982)">
    <rect x="227.122" y="153.057" width="22.384" height="24.419" style="display:inline;opacity:1;fill:#ffd086;fill-opacity:1;stroke:none;stroke-width:34.90000153;stroke-miterlimit:4;stroke-dasharray:none;stroke-dashoffset:0;stroke-opacity:0.99607843" id="rect6810-6-9-2-9"/>
    <rect x="367.38" y="282.876" width="30.524" height="30.524" style="display:inline;opacity:1;fill:#fabb37;fill-opacity:1;stroke:none;stroke-width:34.90000153;stroke-miterlimit:4;stroke-dasharray:none;stroke-dashoffset:0;stroke-opacity:0.99607843" id="rect6810-6-9-2-1"/>
    <rect x="-104.397" y="551.688" width="46.803" height="46.803" style="display:inline;opacity:1;fill:#fbc14c;fill-opacity:1;stroke:none;stroke-width:34.90000153;stroke-miterlimit:4;stroke-dasharray:none;stroke-dashoffset:0;stroke-opacity:0.99607843" id="rect6810-6-1"/>
    <rect x="-108.558" y="757.416" width="30.524" height="30.524" style="display:inline;opacity:1;fill:#fabb37;fill-opacity:1;stroke:none;stroke-width:34.90000153;stroke-miterlimit:4;stroke-dasharray:none;stroke-dashoffset:0;stroke-opacity:0.99607843" id="rect6810-6-9-2-1-7"/>
    <rect x="559.136" y="348.17" width="24.419" height="26.454" style="display:inline;opacity:1;fill:#cc8902;fill-opacity:1;stroke:none;stroke-width:34.90000153;stroke-miterlimit:4;stroke-dasharray:none;stroke-dashoffset:0;stroke-opacity:0.99607843" id="rect6810-0-3-5-5"/>
    <rect x="601.591" y="553.079" width="18.314" height="18.314" style="display:inline;opacity:1;fill:#fabb37;fill-opacity:1;stroke:none;stroke-width:34.90000153;stroke-miterlimit:4;stroke-dasharray:none;stroke-dashoffset:0;stroke-opacity:0.99607843" id="rect6810-6-9-2-1-0-7-8"/>
    <rect x="353.079" y="821.769" width="30.524" height="30.524" style="display:inline;opacity:1;fill:#fabb37;fill-opacity:1;stroke:none;stroke-width:34.90000153;stroke-miterlimit:4;stroke-dasharray:none;stroke-dashoffset:0;stroke-opacity:0.99607843" id="rect6810-6-9-2-1-2-9"/>
    <rect x="219.608" y="919.121" width="38.663" height="40.698" style="display:inline;opacity:1;fill:#fbc14c;fill-opacity:1;stroke:none;stroke-width:34.90000153;stroke-miterlimit:4;stroke-dasharray:none;stroke-dashoffset:0;stroke-opacity:0.99607843" id="rect6810-6-1-6-5"/>
    <rect x="-124.567" y="343.173" width="26.454" height="30.524" style="display:inline;opacity:1;fill:#fbc14c;fill-opacity:1;stroke:none;stroke-width:34.90000153;stroke-miterlimit:4;stroke-dasharray:none;stroke-dashoffset:0;stroke-opacity:0.99607843" id="rect6810-6-1-6-3-2"/>
    <rect x="-596.175" y="715.916" width="24.507" height="24.419" style="display:inline;opacity:1;fill:#cc8902;fill-opacity:1;stroke:none;stroke-width:34.90000153;stroke-miterlimit:4;stroke-dasharray:none;stroke-dashoffset:0;stroke-opacity:0.99607843" id="rect6810-0-3-5-4-3-3" transform="matrix(-1, 0, 0, 1, 0, 0)"/>
    <rect x="29.741" y="235.2" width="20.349" height="22.384" style="display:inline;opacity:1;fill:#ffd086;fill-opacity:1;stroke:none;stroke-width:34.90000153;stroke-miterlimit:4;stroke-dasharray:none;stroke-dashoffset:0;stroke-opacity:0.99607843" id="rect6810-6-9-2-9-2-7-8-8-5"/>
    <rect x="-74.063" y="840.294" width="24.507" height="24.419" style="display:inline;opacity:1;fill:#cc8902;fill-opacity:1;stroke:none;stroke-width:34.90000153;stroke-miterlimit:4;stroke-dasharray:none;stroke-dashoffset:0;stroke-opacity:0.99607843" id="rect6810-0-3-5-4-3-3-9" transform="matrix(-1, 0, 0, 1, 0, 0)"/>
  </g>
  <g id="layer5" transform="translate(0,-201.9685)"/>
  <g id="layer3" style="display:inline" transform="translate(0,-201.9685)">
    <path style="opacity:1;fill:none;fill-opacity:0.99393939;stroke:#ffffff;stroke-width:42.09999847;stroke-linecap:round;stroke-miterlimit:4;stroke-dasharray:none;stroke-dashoffset:0;stroke-opacity:1" id="path6212" ry="440" rx="300" cy="492.36221" cx="340" d=""/>
  </g>
  <path style="display: inline; fill: rgb(80, 150, 200); fill-opacity: 1; fill-rule: evenodd; stroke: none; stroke-width: 1px; stroke-linecap: butt; stroke-linejoin: miter; stroke-opacity: 1; opacity: 1;" d="M 1831.266 162.819 C 1829.625 162.82 1827.982 162.832 1826.336 162.854 C 1773.867 163.552 1724.014 174.816 1678.771 194.59 C 1780.84 212.197 1948.191 268.328 1984.696 447.319 L 2209.989 590.875 C 2212.045 573.994 2213.008 556.779 2212.783 539.303 L 2212.78 539.096 C 2209.97 330.137 2039.633 162.686 1831.266 162.819 Z" id="path-1" bx:origin="0.5 0.5"/>
  <g id="g-1" style="display:inline" transform="matrix(1, 0, 0, 1, 1403.178955, -73.79715)">
    <path style="display: inline; fill: rgb(255, 208, 134); fill-opacity: 1; fill-rule: evenodd; stroke: none; stroke-width: 1px; stroke-linecap: butt; stroke-linejoin: miter; stroke-opacity: 1; opacity: 1;" d="M 585.16992,524.91211 C 447.41745,738.84015 285.93093,797.68142 93.347656,801.03711 158.66452,921.84083 287.20038,1003.1698 434.03906,1001.2559 607.56851,998.99446 752.51317,881.18488 796.65234,721.9668 c -2.6864,-6.57764 -6.20106,-13.62037 -10.8164,-21.13477 C 768.68987,677.03878 709.10478,568.47721 585.16992,524.91211 Z" id="path-4"/>
    <path style="display: inline; fill: rgb(39, 11, 11); fill-opacity: 0.993939; fill-rule: evenodd; stroke: none; stroke-width: 1px; stroke-linecap: butt; stroke-linejoin: miter; stroke-opacity: 1; opacity: 1;" d="m 586.25391,524.11523 c -21.57163,126.33825 -108.2801,230.35644 -87.66993,311.48633 26.06387,102.59778 -79.12567,125.91326 -164.61132,153.74024 31.95064,8.20311 65.502,12.3646 100.0664,11.9141 200.01324,-2.60657 362.05355,-158.7197 375.52149,-354.81645 -16.36318,-4.66228 -32.1351,-11.75072 -42.83789,-23.69336 -32.6877,-36.47436 -116.60579,-76.182 -180.46875,-98.63086 z" id="path-5"/>
    <path style="display: inline; fill: rgb(205, 138, 3); fill-opacity: 0.993939; fill-rule: evenodd; stroke: none; stroke-width: 1px; stroke-linecap: butt; stroke-linejoin: miter; stroke-opacity: 1; opacity: 1;" d="m 584.99609,531.33008 c -26.42158,62.17296 -14.83089,66.98582 -37.91601,116.64258 -14.17092,30.48206 -17.33296,46.71697 -38.17188,103.35156 L 768.68555,793.625 c 0.9031,-1.76161 1.79166,-3.53131 2.66797,-5.30859 0.11251,-0.2282 0.22386,-0.4571 0.33593,-0.68555 0.74115,-1.5108 1.47173,-3.02889 2.19336,-4.55078 0.15212,-0.32079 0.30383,-0.64161 0.45508,-0.96289 0.81083,-1.72247 1.61278,-3.44918 2.39844,-5.18555 0.81608,-1.80361 1.61563,-3.61525 2.40429,-5.43359 0.10093,-0.23267 0.20031,-0.46631 0.30079,-0.69922 0.70062,-1.62429 1.38978,-3.25484 2.06836,-4.89063 0.0851,-0.20516 0.17108,-0.40989 0.25585,-0.61523 0.75277,-1.82369 1.49557,-3.65256 2.22071,-5.49024 0.74585,-1.89017 1.47506,-3.78866 2.1914,-5.69335 0.0436,-0.11584 0.0874,-0.23177 0.13086,-0.34766 0.64073,-1.70872 1.26799,-3.42437 1.88477,-5.14453 0.099,-0.27607 0.19849,-0.55177 0.29687,-0.82813 1.34147,-3.76877 2.62647,-7.56487 3.85157,-11.38672 0.008,-0.0255 0.0172,-0.0507 0.0254,-0.0762 0.0156,-0.0486 0.0294,-0.0979 0.0449,-0.14648 0.5996,-1.87449 1.18462,-3.75378 1.75586,-5.64063 0.0327,-0.10803 0.065,-0.21614 0.0977,-0.32422 1.1856,-3.92878 2.31202,-7.88466 3.37305,-11.86523 0.007,-0.0247 0.0129,-0.0495 0.0195,-0.0742 0.0125,-0.0468 0.0247,-0.0938 0.0371,-0.14062 0.52168,-1.96173 1.02656,-3.92847 1.51758,-5.90235 0.004,-0.0176 0.009,-0.0351 0.0137,-0.0527 0.003,-0.0124 0.007,-0.0247 0.01,-0.0371 1.01021,-4.06523 1.95547,-8.15656 2.83398,-12.27149 C 737.8798,634.95587 692.83855,571.9745 584.99609,531.33008 Z" id="path-6"/>
    <path style="display: inline; fill: rgb(64, 40, 1); fill-opacity: 0.993939; fill-rule: evenodd; stroke: none; stroke-width: 1px; stroke-linecap: butt; stroke-linejoin: miter; stroke-opacity: 1; opacity: 1;" d="m 555.26038,628.99723 -10.44593,16.98129 c -2.50357,15.42044 -19.92944,49.42676 -41.29492,110.74414 -29.11835,83.56757 66.82865,38.28295 73.67969,41.38281 64.6125,29.23493 132.91974,31.41069 179.60937,16.95117 16.45351,-27.56961 29.52066,-57.37807 38.64063,-88.8457 -281.04013,-47.3816 23.76693,-25.38857 -240.18884,-97.21371 z" id="path-7"/>
    <path style="display: inline; fill: rgb(251, 188, 56); fill-opacity: 0.993939; fill-rule: evenodd; stroke: none; stroke-width: 1px; stroke-linecap: butt; stroke-linejoin: miter; stroke-opacity: 1; opacity: 1;" d="m 504.68359,865.61328 c -22.81492,71.32292 -112.93496,103.95373 -173.36328,123.0293 32.7455,8.66079 67.19526,13.07632 102.71875,12.61332 97.62636,-1.27228 186.20324,-39.11993 252.87696,-100.33402 -50.96384,-3.16822 -102.74996,-5.35269 -182.23243,-35.3086 z" id="path-8"/>
    <path style="display: inline; fill: rgb(252, 194, 77); fill-opacity: 0.993939; fill-rule: evenodd; stroke: none; stroke-width: 1px; stroke-linecap: butt; stroke-linejoin: miter; stroke-opacity: 1; opacity: 1;" d="m 497.01953,776.20508 c -0.24187,19.10857 -15.69269,67.67827 4.86524,95.17578 13.90919,18.6044 105.68907,21.5062 170.4414,42.27734 37.49477,-31.08628 68.92344,-69.20103 92.28125,-112.29297 -88.15778,0.4392 -173.3807,10.34531 -267.58789,-25.16015 z" id="path-9"/>
  </g>
  <ellipse style="fill: rgb(0, 0, 0);" cx="452.744" cy="1128.966" rx="24.143" ry="24.143"/>
  <ellipse style="fill: rgb(128, 118, 118);" transform="matrix(1.000001, 0, 0, 1.000001, -22006.442641, -11266.551025)" cx="22069.977" cy="12688.438" rx="376.889" ry="376.891"/>
  <path style="fill: rgb(0, 0, 0);" d="M 388.513 1778.247 C 434.277 1719.316 433.321 1649.095 366.373 1585.805 C 295.453 1518.765 164.389 1477.462 22.55 1477.462 C -265.927 1477.462 -452.297 1638.349 -343.784 1777.885 C -426.236 1642.683 -248.04 1493.683 22.55 1493.684 C 160.468 1493.684 287.912 1534.788 356.871 1601.516 C 416.575 1659.284 422.303 1722.861 388.513 1778.247 Z" transform="matrix(0.866025, -0.5, 0.5, 0.866025, -799.328188, -28.205919)" bx:origin="0 0"/>
  <path style="fill: rgb(0, 0, 0);" d="M 1113.295 1248.124 C 1159.059 1189.192 1158.105 1118.972 1091.156 1055.683 C 1020.236 988.64 889.171 947.341 747.331 947.341 C 458.852 947.341 272.483 1108.225 380.999 1247.761 C 298.545 1112.562 476.741 963.559 747.331 963.559 C 885.25 963.559 1012.695 1004.664 1081.654 1071.391 C 1141.357 1129.162 1147.085 1192.738 1113.295 1248.124 Z" transform="matrix(0, 1, -1, 0, 1219.824112, 674.858006)" bx:origin="0 0"/>
  <path style="fill: rgb(0, 0, 0);" d="M 1195.573 2166.894 C 1241.337 2107.965 1240.383 2037.743 1173.435 1974.455 C 1102.515 1907.41 971.45 1866.111 829.61 1866.112 C 541.131 1866.113 354.76 2026.993 463.276 2166.529 C 380.823 2031.328 559.02 1882.33 829.61 1882.328 C 967.529 1882.329 1094.973 1923.436 1163.932 1990.163 C 1223.636 2047.935 1229.363 2111.508 1195.573 2166.894 Z" transform="matrix(-0.866027, -0.499997, 0.499997, -0.866027, -271.058775, 3659.592358)" bx:origin="0 0"/>
  <ellipse style="fill: rgb(0, 0, 0);" transform="matrix(0.999999, 0, 0, 0.999997, -1349.792414, 608.908732)" cx="1413.8" cy="812.811" rx="24.143" ry="24.143"/>
  <text x="233.93" y="530.436" style="font-size: 331.3px; font-family: &quot;Open Sans&quot;; text-transform: none; font-variant: normal; font-weight: 800; fill: rgb(65, 41, 1); word-spacing: 0px;">Cs</text>
</svg>