<?xml version="1.0" encoding="utf-8"?>
<svg width="512px" height="512px" viewBox="0 0 500 500" xmlns="http://www.w3.org/2000/svg" xmlns:bx="https://boxy-svg.com">
  <path d="M 390.992 122.276 C 418.209 157.183 434.924 200.278 441.202 248.24 C 441.187 276.711 435.71 305.292 425.308 333.282 C 371.101 416.727 274.951 449.213 167.669 434.279 C 136.406 416.036 109.009 390.076 86.272 358.016 C 67.778 323.794 57.942 284.4 56.489 242.062 C 62.206 199.766 79.617 161.912 106.301 129.617 C 162.524 85.439 239.03 70.181 321.968 82.52 C 345.508 92.535 368.657 105.883 390.992 122.276 Z" style="fill: rgb(255, 255, 255);" bx:origin="0 0"/>
  <g transform="matrix(0.517848, 0, 0, 0.517848, -53.306625, -599.931213)" style="opacity: 1;">
    <g id="g-14" style="display: inline; opacity: 0.5;" transform="matrix(1, 0, 0, 1, 144.570724, 1007.099426)">
      <path style="display:inline;fill:#ffd086;fill-opacity:1;fill-rule:evenodd;stroke:none;stroke-width:1px;stroke-linecap:butt;stroke-linejoin:miter;stroke-opacity:1" d="M 585.16992,524.91211 C 447.41745,738.84015 285.93093,797.68142 93.347656,801.03711 158.66452,921.84083 287.20038,1003.1698 434.03906,1001.2559 607.56851,998.99446 752.51317,881.18488 796.65234,721.9668 c -2.6864,-6.57764 -6.20106,-13.62037 -10.8164,-21.13477 C 768.68987,677.03878 709.10478,568.47721 585.16992,524.91211 Z" id="path-102"/>
      <path style="display:inline;fill:#270b0b;fill-opacity:0.99393939;fill-rule:evenodd;stroke:none;stroke-width:1px;stroke-linecap:butt;stroke-linejoin:miter;stroke-opacity:1" d="M 586.254 524.115 C 564.682 650.453 477.974 754.472 498.584 835.602 C 524.648 938.199 419.458 961.515 333.973 989.342 C 365.923 997.545 399.475 1001.706 434.039 1001.256 C 634.052 998.649 796.093 842.536 809.561 646.439 C 793.197 641.777 777.425 634.689 766.723 622.746 C 734.035 586.272 650.117 546.564 586.254 524.115 Z" id="path-103" bx:origin="0.5 0.5"/>
      <path style="display: inline; fill: rgb(203, 137, 3); fill-opacity: 0.993939; fill-rule: evenodd; stroke: none; stroke-width: 1px; stroke-linecap: butt; stroke-linejoin: miter; stroke-opacity: 1;" d="M 586.254 524.115 C 564.682 650.453 477.974 754.472 498.584 835.602 C 524.648 938.199 419.458 961.515 333.973 989.342 C 365.923 997.545 399.475 1001.706 434.039 1001.256 C 634.052 998.649 796.093 842.536 809.561 646.439 C 793.197 641.777 777.425 634.689 766.723 622.746 C 734.035 586.272 650.117 546.564 586.254 524.115 Z" id="path-104" bx:origin="0.5 0.5"/>
    </g>
    <g id="g-15" style="display: inline; opacity: 0.5;" transform="matrix(1, 0, 0, 1, 144.570724, 1007.099426)">
      <rect x="504.265" y="500.287" width="23.492" height="25.527" style="display:inline;opacity:1;fill:#fabb37;fill-opacity:1;stroke:none;stroke-width:34.90000153;stroke-miterlimit:4;stroke-dasharray:none;stroke-dashoffset:0;stroke-opacity:0.99607843" id="path-105"/>
      <rect x="369.174" y="415.429" width="22.384" height="24.419" style="display:inline;opacity:1;fill:#ffd086;fill-opacity:1;stroke:none;stroke-width:34.90000153;stroke-miterlimit:4;stroke-dasharray:none;stroke-dashoffset:0;stroke-opacity:0.99607843" id="path-106"/>
      <rect x="418.995" y="433.019" width="30.524" height="30.524" style="display:inline;opacity:1;fill:#fabb37;fill-opacity:1;stroke:none;stroke-width:34.90000153;stroke-miterlimit:4;stroke-dasharray:none;stroke-dashoffset:0;stroke-opacity:0.99607843" id="path-107"/>
      <rect x="417.34" y="652.556" width="46.803" height="46.803" style="display:inline;opacity:1;fill:#fbc14c;fill-opacity:1;stroke:none;stroke-width:34.90000153;stroke-miterlimit:4;stroke-dasharray:none;stroke-dashoffset:0;stroke-opacity:0.99607843" id="path-108"/>
      <rect x="422.586" y="475.891" width="30.524" height="30.524" style="display:inline;opacity:1;fill:#fabb37;fill-opacity:1;stroke:none;stroke-width:34.90000153;stroke-miterlimit:4;stroke-dasharray:none;stroke-dashoffset:0;stroke-opacity:0.99607843" id="path-109"/>
      <rect x="472.618" y="605.457" width="24.419" height="26.454" style="display:inline;opacity:1;fill:#cc8902;fill-opacity:1;stroke:none;stroke-width:34.90000153;stroke-miterlimit:4;stroke-dasharray:none;stroke-dashoffset:0;stroke-opacity:0.99607843" id="path-110"/>
      <rect x="520.772" y="557.902" width="18.314" height="18.314" style="display:inline;opacity:1;fill:#fabb37;fill-opacity:1;stroke:none;stroke-width:34.90000153;stroke-miterlimit:4;stroke-dasharray:none;stroke-dashoffset:0;stroke-opacity:0.99607843" id="path-111"/>
      <rect x="454.784" y="563.028" width="30.524" height="30.524" style="display:inline;opacity:1;fill:#fabb37;fill-opacity:1;stroke:none;stroke-width:34.90000153;stroke-miterlimit:4;stroke-dasharray:none;stroke-dashoffset:0;stroke-opacity:0.99607843" id="path-112"/>
      <rect x="335.342" y="720.987" width="38.663" height="40.698" style="display:inline;opacity:1;fill:#fbc14c;fill-opacity:1;stroke:none;stroke-width:34.90000153;stroke-miterlimit:4;stroke-dasharray:none;stroke-dashoffset:0;stroke-opacity:0.99607843" id="path-113"/>
      <rect x="371.97" y="661.975" width="26.454" height="30.524" style="display:inline;opacity:1;fill:#fbc14c;fill-opacity:1;stroke:none;stroke-width:34.90000153;stroke-miterlimit:4;stroke-dasharray:none;stroke-dashoffset:0;stroke-opacity:0.99607843" id="path-114"/>
      <rect x="-427.93" y="610.085" width="24.507" height="24.419" style="display:inline;opacity:1;fill:#cc8902;fill-opacity:1;stroke:none;stroke-width:34.90000153;stroke-miterlimit:4;stroke-dasharray:none;stroke-dashoffset:0;stroke-opacity:0.99607843" id="path-115" transform="scale(-1,1)"/>
      <rect x="480.411" y="523.469" width="20.349" height="22.384" style="display:inline;opacity:1;fill:#ffd086;fill-opacity:1;stroke:none;stroke-width:34.90000153;stroke-miterlimit:4;stroke-dasharray:none;stroke-dashoffset:0;stroke-opacity:0.99607843" id="path-116"/>
      <rect x="-499.5" y="466.314" width="24.507" height="24.419" style="display:inline;opacity:1;fill:#cc8902;fill-opacity:1;stroke:none;stroke-width:34.90000153;stroke-miterlimit:4;stroke-dasharray:none;stroke-dashoffset:0;stroke-opacity:0.99607843" id="path-117" transform="scale(-1,1)"/>
    </g>
    <g id="g-16" style="display: inline; opacity: 1;" transform="matrix(1.0000000700020495, 0, 0, 1.0000000700020495, 144.57072391079612, 1007.0994398715994)">
      <path style="display: inline; fill: none; fill-opacity: 1; fill-rule: evenodd; stroke: rgb(255, 122, 0); stroke-width: 2.34888; stroke-linecap: butt; stroke-linejoin: miter; stroke-opacity: 1;" d="M 585.16992,524.91211 C 447.41745,738.84015 285.93093,797.68142 93.347656,801.03711 158.66452,921.84083 287.20038,1003.1698 434.03906,1001.2559 607.56851,998.99446 752.51317,881.18488 796.65234,721.9668 c -2.6864,-6.57764 -6.20106,-13.62037 -10.8164,-21.13477 C 768.68987,677.03878 709.10478,568.47721 585.16992,524.91211 Z" id="path-118"/>
      <path style="display: inline; fill: none; fill-opacity: 0.993939; fill-rule: evenodd; stroke: rgb(255, 122, 0); stroke-width: 2.34888; stroke-linecap: butt; stroke-linejoin: miter; stroke-opacity: 1;" d="M 586.254 524.115 C 564.682 650.453 477.974 754.472 498.584 835.602 C 524.648 938.199 419.458 961.515 333.973 989.342 C 365.923 997.545 399.475 1001.706 434.039 1001.256 C 634.052 998.649 796.093 842.536 809.561 646.439 C 793.197 641.777 777.425 634.689 766.723 622.746 C 734.035 586.272 650.117 546.564 586.254 524.115 Z" id="path-119" bx:origin="0.5 0.5"/>
      <path style="display: inline; fill: none; fill-opacity: 0.993939; fill-rule: evenodd; stroke: rgb(255, 122, 0); stroke-width: 2.34888; stroke-linecap: butt; stroke-linejoin: miter; stroke-opacity: 1;" d="M 586.254 524.115 C 564.682 650.453 477.974 754.472 498.584 835.602 C 524.648 938.199 419.458 961.515 333.973 989.342 C 365.923 997.545 399.475 1001.706 434.039 1001.256 C 634.052 998.649 796.093 842.536 809.561 646.439 C 793.197 641.777 777.425 634.689 766.723 622.746 C 734.035 586.272 650.117 546.564 586.254 524.115 Z" id="path-120" bx:origin="0.5 0.5"/>
    </g>
  </g>
  <g transform="matrix(0.608261, 0, 0, 0.608261, -20.084976, 3.255736)">
    <g>
      <path style="display: inline; fill: rgb(64, 178, 255); fill-opacity: 1; fill-rule: evenodd; stroke: none; stroke-width: 1px; stroke-linecap: butt; stroke-linejoin: miter; stroke-opacity: 1; opacity: 0.78;" id="path-10" d="M 419.133 85.738 C 417.295 85.739 415.455 85.754 413.611 85.778 C 354.852 86.561 299.023 99.174 248.358 121.32 C 584.121 13.206 796.175 211.26 831.7 508.773 L 846.383 507.124 C 815.586 235.801 652.477 85.588 419.133 85.738 Z" transform="matrix(0.96373, 0.266878, -0.266878, 0.96373, 89.505231, -136.615061)" bx:origin="0.5 0.5"/>
      <path style="display: inline; fill: rgb(64, 178, 255); fill-opacity: 1; fill-rule: evenodd; stroke: none; stroke-width: 1px; stroke-linecap: butt; stroke-linejoin: miter; stroke-opacity: 1; opacity: 1;" id="path-3" d="M 146.037 194.065 C 144.201 194.066 142.361 194.081 140.517 194.104 C 81.76 194.888 25.931 207.503 -24.736 229.648 C 311.029 121.531 523.083 319.583 558.604 617.093 L 573.284 615.443 C 542.49 344.122 379.385 193.913 146.037 194.065 Z" transform="matrix(-0.180988, -0.983485, 0.983485, -0.180988, -39.298581, 705.897544)" bx:origin="0.5 0.5"/>
      <path style="display: inline; fill: rgb(64, 178, 255); fill-opacity: 1; fill-rule: evenodd; stroke: none; stroke-width: 1px; stroke-linecap: butt; stroke-linejoin: miter; stroke-opacity: 1; opacity: 0.4;" id="path-11" d="M 487.744 193.084 C 485.906 193.085 484.067 193.1 482.223 193.123 C 423.464 193.907 367.635 206.52 316.975 228.668 C 652.726 120.552 864.775 318.605 900.299 616.109 L 914.979 614.46 C 884.184 343.144 721.081 192.935 487.744 193.084 Z" transform="matrix(0.619997, 0.784605, -0.784605, 0.619997, 523.067231, -343.331539)" bx:origin="0.5 0.5"/>
      <path style="display: inline; fill: rgb(64, 178, 255); fill-opacity: 1; fill-rule: evenodd; stroke: none; stroke-width: 1px; stroke-linecap: butt; stroke-linejoin: miter; stroke-opacity: 1; opacity: 0.84;" id="path-12" d="M 295.969 432.757 C 294.131 432.758 292.293 432.773 290.449 432.797 C 231.688 433.58 175.86 446.194 125.198 468.341 C 460.957 360.226 673.005 558.28 708.526 855.786 L 723.207 854.139 C 692.412 582.819 529.31 432.609 295.969 432.757 Z" transform="matrix(-0.978849, 0.204584, -0.204584, -0.978849, 963.820796, 1116.367293)" bx:origin="0.5 0.5"/>
      <path style="display: inline; fill: rgb(64, 178, 255); fill-opacity: 1; fill-rule: evenodd; stroke: none; stroke-width: 1px; stroke-linecap: butt; stroke-linejoin: miter; stroke-opacity: 1; opacity: 0.4;" id="path-13" d="M 158.036 148.83 C 156.2 148.833 154.36 148.846 152.516 148.872 C 93.759 149.653 37.93 162.267 -12.734 184.411 C 323.022 76.301 535.076 274.352 570.604 571.857 L 585.286 570.208 C 554.483 298.891 391.38 148.683 158.036 148.83 Z" transform="matrix(0.338614, -0.940926, 0.940926, 0.338614, -115.595158, 483.705984)" bx:origin="0.5 0.5"/>
      <path style="display: inline; fill: rgb(64, 178, 255); fill-opacity: 1; fill-rule: evenodd; stroke: none; stroke-width: 1px; stroke-linecap: butt; stroke-linejoin: miter; stroke-opacity: 1; opacity: 1;" id="path-14" d="M 501.019 288.292 C 499.181 288.293 497.34 288.308 495.496 288.331 C 436.736 289.115 380.908 301.726 330.243 323.874 C 666.004 215.757 878.062 413.812 913.586 711.322 L 928.268 709.673 C 897.468 438.352 734.361 288.141 501.019 288.292 Z" transform="matrix(0.164656, 0.986351, -0.986351, 0.164656, 982.857266, -233.452063)" bx:origin="0.5 0.5"/>
      <path style="display: inline; fill: rgb(64, 178, 255); fill-opacity: 1; fill-rule: evenodd; stroke: none; stroke-width: 1px; stroke-linecap: butt; stroke-linejoin: miter; stroke-opacity: 1; opacity: 0.4;" id="path-15" d="M 192.954 376.521 C 191.115 376.522 189.277 376.537 187.433 376.561 C 128.674 377.344 72.845 389.958 22.181 412.103 C 357.94 303.989 569.987 502.045 605.505 799.553 L 620.188 797.905 C 589.392 526.584 426.295 376.369 192.954 376.521 Z" transform="matrix(-0.931404, -0.363988, 0.363988, -0.931404, 419.499006, 1182.599809)" bx:origin="0.5 0.5"/>
      <path style="display: inline; fill: rgb(64, 178, 255); fill-opacity: 1; fill-rule: evenodd; stroke: none; stroke-width: 1px; stroke-linecap: butt; stroke-linejoin: miter; stroke-opacity: 1; opacity: 1;" id="path-16" d="M 221.614 63.973 C 219.777 63.976 217.938 63.99 216.094 64.015 C 157.334 64.795 101.506 77.409 50.841 99.554 C 386.598 -8.559 598.651 189.497 634.173 487.001 L 648.854 485.354 C 618.058 214.037 454.954 63.824 221.614 63.973 Z" transform="matrix(0.750452, -0.660925, 0.660925, 0.750452, -70.803322, 290.920273)" bx:origin="0.5 0.5"/>
      <path style="display: inline; fill: rgb(64, 178, 255); fill-opacity: 1; fill-rule: evenodd; stroke: none; stroke-width: 1px; stroke-linecap: butt; stroke-linejoin: miter; stroke-opacity: 1; opacity: 0.4;" id="path-17" d="M 441.888 342.098 C 440.047 342.098 438.207 342.114 436.362 342.138 C 377.601 342.922 321.765 355.535 271.103 377.681 C 606.886 269.567 818.944 467.615 854.462 765.133 L 869.142 763.483 C 838.354 492.154 675.242 341.948 441.888 342.098 Z" transform="matrix(-0.356582, 0.934264, -0.934264, -0.356582, 1256.759493, 169.182552)" bx:origin="0.5 0.5"/>
      <g transform="matrix(0.762493, 0, 0, 0.762493, 19.294647, -716.322815)">
        <path d="M 566.466 1089.137 L 566.466 1148.222 C 565.867 1148.219 565.267 1148.217 564.667 1148.217 C 561.481 1148.217 558.31 1148.259 555.154 1148.341 L 555.154 1089.137 Z M 908.29 1477.146 L 956.987 1477.146 L 956.987 1488.458 L 908.569 1488.458 C 908.539 1484.693 908.447 1480.922 908.29 1477.146 Z M 566.466 1835.013 L 566.466 1876.467 L 555.154 1876.467 L 555.154 1834.886 C 558.318 1834.973 561.49 1835.017 564.667 1835.017 C 565.267 1835.017 565.867 1835.016 566.466 1835.013 Z M 220.775 1488.458 L 169.657 1488.458 L 169.657 1477.146 L 221.089 1477.146 C 220.921 1480.909 220.816 1484.68 220.775 1488.458 Z" style="fill: rgb(64, 40, 0); stroke: none;" bx:origin="0 0"/>
        <path d="M 760.121 1143.311 L 717.336 1217.417 C 715.72 1216.518 714.096 1215.632 712.465 1214.761 L 755.318 1140.537 Z M 830.122 1324.203 L 900.424 1283.614 L 903.198 1288.417 L 833.04 1328.923 C 832.08 1327.339 831.107 1325.766 830.122 1324.203 Z M 840.599 1641.137 L 903.197 1677.278 L 900.424 1682.082 L 837.911 1645.99 C 838.821 1644.38 839.717 1642.762 840.599 1641.137 Z M 725.168 1761.843 L 760.122 1822.385 L 755.318 1825.158 L 720.379 1764.641 C 721.985 1763.722 723.582 1762.789 725.168 1761.843 Z M 403.538 1760.932 L 366.456 1825.159 L 361.653 1822.386 L 398.802 1758.042 C 400.372 1759.019 401.951 1759.982 403.538 1760.932 Z M 289.58 1642.689 L 221.35 1682.082 L 218.577 1677.279 L 286.944 1637.807 C 287.807 1639.437 288.685 1641.065 289.58 1642.689 Z M 294.354 1332.168 L 218.576 1288.417 L 221.35 1283.614 L 297.213 1327.414 C 296.246 1328.99 295.293 1330.575 294.354 1332.168 Z M 406.079 1220.259 L 361.653 1143.311 L 366.457 1140.537 L 410.889 1217.495 C 409.276 1218.403 407.673 1219.324 406.079 1220.259 Z" style="fill: rgb(64, 40, 0); stroke: none;" bx:origin="0 0"/>
      </g>
    </g>
    <rect x="429.367" y="425.979" width="20.003" height="21.735" style="display: inline; opacity: 1; fill: rgb(80, 150, 200); fill-opacity: 1; stroke: none; stroke-width: 34.9; stroke-miterlimit: 4; stroke-dasharray: none; stroke-dashoffset: 0; stroke-opacity: 0.996078;" id="path-91" transform="matrix(1, 0, 0, 0.999999, -301.377075, -219.498434)"/>
    <rect x="446.853" y="25.462" width="25.99" height="25.99" style="display: inline; opacity: 1; fill: rgb(80, 150, 200); fill-opacity: 1; stroke: none; stroke-width: 34.9; stroke-miterlimit: 4; stroke-dasharray: none; stroke-dashoffset: 0; stroke-opacity: 0.996078;" id="path-93"/>
    <rect x="-135.956" y="605.141" width="39.851" height="39.851" style="display: inline; opacity: 1; fill: rgb(80, 150, 200); fill-opacity: 1; stroke: none; stroke-width: 34.9; stroke-miterlimit: 4; stroke-dasharray: none; stroke-dashoffset: 0; stroke-opacity: 0.996078;" id="path-94" transform="matrix(0.999999, 0, 0, 1, 846.176756, -394.956024)"/>
    <rect x="225.779" y="689.836" width="25.99" height="25.99" style="display: inline; opacity: 1; fill: rgb(80, 150, 200); fill-opacity: 1; stroke: none; stroke-width: 34.9; stroke-miterlimit: 4; stroke-dasharray: none; stroke-dashoffset: 0; stroke-opacity: 0.996078;" id="path-95"/>
    <rect x="594.013" y="737.142" width="20.792" height="22.525" style="display: inline; opacity: 1; fill: rgb(80, 150, 200); fill-opacity: 1; stroke: none; stroke-width: 34.9; stroke-miterlimit: 4; stroke-dasharray: none; stroke-dashoffset: 0; stroke-opacity: 0.996078;" id="path-96"/>
    <rect x="387.235" y="479.397" width="25.99" height="25.99" style="display: inline; opacity: 1; fill: rgb(80, 150, 200); fill-opacity: 1; stroke: none; stroke-width: 34.9; stroke-miterlimit: 4; stroke-dasharray: none; stroke-dashoffset: 0; stroke-opacity: 0.996078;" id="path-98" transform="matrix(1.000001, 0, 0, 0.999999, 365.274966, 79.295241)"/>
    <rect x="421.962" y="775.937" width="32.92" height="34.653" style="display: inline; opacity: 1; fill: rgb(80, 150, 200); fill-opacity: 1; stroke: none; stroke-width: 34.9; stroke-miterlimit: 4; stroke-dasharray: none; stroke-dashoffset: 0; stroke-opacity: 0.996078;" id="path-99"/>
    <rect x="-66.939" y="-568.978" width="20.867" height="20.792" style="display: inline; opacity: 1; fill: rgb(80, 150, 200); fill-opacity: 1; stroke: none; stroke-width: 34.9; stroke-miterlimit: 4; stroke-dasharray: none; stroke-dashoffset: 0; stroke-opacity: 0.996078;" id="path-101" transform="matrix(-1, 0, 0, 0.999997, 31.356928, 984.736306)"/>
  </g>
  <path d="M 154.526 230.66 C 148.801 230.66 144.279 232.568 140.962 236.383 C 137.648 240.195 135.992 245.417 135.992 252.046 C 135.992 258.863 137.591 264.13 140.785 267.849 C 143.981 271.567 148.536 273.426 154.453 273.426 C 158.086 273.426 162.232 272.773 166.892 271.468 L 166.892 276.778 C 163.279 278.133 158.825 278.808 153.528 278.808 C 145.853 278.808 139.929 276.482 135.761 271.827 C 131.59 267.167 129.502 260.55 129.502 251.972 C 129.502 246.604 130.507 241.899 132.519 237.862 C 134.526 233.823 137.424 230.71 141.21 228.524 C 145.002 226.339 149.463 225.247 154.593 225.247 C 160.06 225.247 164.835 226.243 168.924 228.238 L 166.356 233.439 C 162.411 231.586 158.469 230.66 154.526 230.66 Z M 193.468 278.808 C 187.692 278.808 183.136 277.051 179.799 273.535 C 176.462 270.021 174.794 265.137 174.794 258.889 C 174.794 252.592 176.342 247.588 179.44 243.883 C 182.542 240.176 186.707 238.323 191.933 238.323 C 196.829 238.323 200.701 239.934 203.552 243.154 C 206.403 246.374 207.828 250.621 207.828 255.895 L 207.828 259.636 L 180.925 259.636 C 181.043 264.224 182.2 267.704 184.398 270.081 C 186.596 272.458 189.69 273.646 193.679 273.646 C 197.885 273.646 202.044 272.763 206.155 271.006 L 206.155 276.279 C 204.063 277.183 202.084 277.832 200.219 278.225 C 198.357 278.615 196.108 278.808 193.468 278.808 M 191.861 243.275 C 188.726 243.275 186.227 244.296 184.362 246.341 C 182.497 248.383 181.397 251.212 181.065 254.826 L 201.489 254.826 C 201.489 251.096 200.657 248.238 198.991 246.256 C 197.327 244.268 194.952 243.275 191.861 243.275 Z M 242.758 267.44 C 242.758 271.078 241.402 273.882 238.695 275.852 C 235.986 277.824 232.184 278.808 227.289 278.808 C 222.11 278.808 218.072 277.99 215.173 276.352 L 215.173 270.866 C 217.05 271.815 219.063 272.563 221.213 273.11 C 223.362 273.653 225.434 273.924 227.43 273.924 C 230.519 273.924 232.895 273.431 234.558 272.447 C 236.221 271.462 237.052 269.959 237.052 267.939 C 237.052 266.419 236.392 265.118 235.076 264.035 C 233.757 262.956 231.185 261.68 227.362 260.209 C 223.725 258.853 221.141 257.673 219.607 256.662 C 218.074 255.652 216.935 254.506 216.189 253.219 C 215.437 251.938 215.064 250.407 215.064 248.621 C 215.064 245.437 216.36 242.927 218.951 241.085 C 221.537 239.245 225.089 238.323 229.607 238.323 C 233.812 238.323 237.923 239.179 241.937 240.892 L 239.832 245.701 C 235.915 244.084 232.362 243.275 229.175 243.275 C 226.373 243.275 224.258 243.715 222.831 244.594 C 221.407 245.475 220.697 246.688 220.697 248.232 C 220.697 249.277 220.963 250.168 221.499 250.902 C 222.035 251.639 222.895 252.342 224.085 253.006 C 225.267 253.672 227.548 254.636 230.926 255.895 C 235.558 257.583 238.685 259.278 240.313 260.986 C 241.942 262.699 242.758 264.849 242.758 267.44 Z M 257.991 278.097 L 252.074 278.097 L 252.074 239.036 L 257.991 239.036 L 257.991 278.097 M 251.574 228.451 C 251.574 227.097 251.907 226.106 252.572 225.477 C 253.237 224.844 254.067 224.528 255.065 224.528 C 256.019 224.528 256.841 224.851 257.529 225.495 C 258.218 226.135 258.563 227.121 258.563 228.451 C 258.563 229.781 258.218 230.773 257.529 231.426 C 256.841 232.079 256.019 232.405 255.065 232.405 C 254.067 232.405 253.237 232.079 252.572 231.426 C 251.907 230.773 251.574 229.781 251.574 228.451 Z M 275.933 239.036 L 275.933 264.375 C 275.933 267.558 276.658 269.935 278.109 271.504 C 279.558 273.073 281.828 273.858 284.918 273.858 C 289.004 273.858 291.991 272.741 293.881 270.507 C 295.769 268.273 296.712 264.625 296.712 259.564 L 296.712 239.036 L 302.63 239.036 L 302.63 278.097 L 297.745 278.097 L 296.893 272.861 L 296.57 272.861 C 295.359 274.782 293.679 276.254 291.529 277.277 C 289.38 278.298 286.926 278.808 284.169 278.808 C 279.417 278.808 275.858 277.682 273.493 275.428 C 271.13 273.169 269.947 269.556 269.947 264.588 L 269.947 239.036 L 275.933 239.036 Z M 364.573 278.097 L 364.573 252.685 C 364.573 249.573 363.909 247.241 362.578 245.682 C 361.248 244.126 359.18 243.347 356.374 243.347 C 352.692 243.347 349.971 244.406 348.211 246.522 C 346.455 248.636 345.577 251.891 345.577 256.286 L 345.577 278.097 L 339.66 278.097 L 339.66 252.685 C 339.66 249.573 338.993 247.241 337.664 245.682 C 336.335 244.126 334.255 243.347 331.429 243.347 C 327.722 243.347 325.008 244.458 323.284 246.681 C 321.56 248.903 320.7 252.546 320.7 257.606 L 320.7 278.097 L 314.781 278.097 L 314.781 239.036 L 319.593 239.036 L 320.554 244.382 L 320.84 244.382 C 321.958 242.479 323.535 240.997 325.566 239.93 C 327.598 238.86 329.872 238.323 332.391 238.323 C 338.497 238.323 342.49 240.533 344.367 244.954 L 344.647 244.954 C 345.815 242.909 347.501 241.294 349.707 240.106 C 351.918 238.918 354.438 238.323 357.269 238.323 C 361.684 238.323 364.991 239.46 367.189 241.731 C 369.387 243.997 370.485 247.625 370.485 252.618 L 370.485 278.097 L 364.573 278.097 Z" style="text-transform: none; fill: rgb(64, 40, 0); isolation: auto; opacity: 1;" bx:origin="0.5 0.5"/>
</svg>