<?xml version="1.0" encoding="utf-8"?>
<svg width="512px" height="512px" viewBox="0 0 500 500" xmlns="http://www.w3.org/2000/svg" xmlns:bx="https://boxy-svg.com">
  <g transform="matrix(0.608261, 0, 0, 0.608261, -20.084976, 3.255736)">
    <g>
      <path style="display: inline; fill: rgb(0, 0, 0); fill-opacity: 1; fill-rule: evenodd; stroke: none; stroke-width: 1px; stroke-linecap: butt; stroke-linejoin: miter; stroke-opacity: 1; opacity: 0.78;" id="path-10" d="M 419.133 85.738 C 417.295 85.739 415.455 85.754 413.611 85.778 C 354.852 86.561 299.023 99.174 248.358 121.32 C 584.121 13.206 796.175 211.26 831.7 508.773 L 846.383 507.124 C 815.586 235.801 652.477 85.588 419.133 85.738 Z" transform="matrix(0.96373, 0.266878, -0.266878, 0.96373, 89.505231, -136.615061)" bx:origin="0.5 0.5"/>
      <path style="display: inline; fill: rgb(0, 0, 0); fill-opacity: 1; fill-rule: evenodd; stroke: none; stroke-width: 1px; stroke-linecap: butt; stroke-linejoin: miter; stroke-opacity: 1; opacity: 1;" id="path-3" d="M 146.037 194.065 C 144.201 194.066 142.361 194.081 140.517 194.104 C 81.76 194.888 25.931 207.503 -24.736 229.648 C 311.029 121.531 523.083 319.583 558.604 617.093 L 573.284 615.443 C 542.49 344.122 379.385 193.913 146.037 194.065 Z" transform="matrix(-0.180988, -0.983485, 0.983485, -0.180988, -39.298581, 705.897544)" bx:origin="0.5 0.5"/>
      <path style="display: inline; fill: rgb(0, 0, 0); fill-opacity: 1; fill-rule: evenodd; stroke: none; stroke-width: 1px; stroke-linecap: butt; stroke-linejoin: miter; stroke-opacity: 1; opacity: 0.4;" id="path-11" d="M 487.744 193.084 C 485.906 193.085 484.067 193.1 482.223 193.123 C 423.464 193.907 367.635 206.52 316.975 228.668 C 652.726 120.552 864.775 318.605 900.299 616.109 L 914.979 614.46 C 884.184 343.144 721.081 192.935 487.744 193.084 Z" transform="matrix(0.619997, 0.784605, -0.784605, 0.619997, 523.067231, -343.331539)" bx:origin="0.5 0.5"/>
      <path style="display: inline; fill: rgb(0, 0, 0); fill-opacity: 1; fill-rule: evenodd; stroke: none; stroke-width: 1px; stroke-linecap: butt; stroke-linejoin: miter; stroke-opacity: 1; opacity: 0.84;" id="path-12" d="M 295.969 432.757 C 294.131 432.758 292.293 432.773 290.449 432.797 C 231.688 433.58 175.86 446.194 125.198 468.341 C 460.957 360.226 673.005 558.28 708.526 855.786 L 723.207 854.139 C 692.412 582.819 529.31 432.609 295.969 432.757 Z" transform="matrix(-0.978849, 0.204584, -0.204584, -0.978849, 963.820796, 1116.367293)" bx:origin="0.5 0.5"/>
      <path style="display: inline; fill: rgb(0, 0, 0); fill-opacity: 1; fill-rule: evenodd; stroke: none; stroke-width: 1px; stroke-linecap: butt; stroke-linejoin: miter; stroke-opacity: 1; opacity: 0.4;" id="path-13" d="M 158.036 148.83 C 156.2 148.833 154.36 148.846 152.516 148.872 C 93.759 149.653 37.93 162.267 -12.734 184.411 C 323.022 76.301 535.076 274.352 570.604 571.857 L 585.286 570.208 C 554.483 298.891 391.38 148.683 158.036 148.83 Z" transform="matrix(0.338614, -0.940926, 0.940926, 0.338614, -115.595158, 483.705984)" bx:origin="0.5 0.5"/>
      <path style="display: inline; fill: rgb(0, 0, 0); fill-opacity: 1; fill-rule: evenodd; stroke: none; stroke-width: 1px; stroke-linecap: butt; stroke-linejoin: miter; stroke-opacity: 1; opacity: 1;" id="path-14" d="M 501.019 288.292 C 499.181 288.293 497.34 288.308 495.496 288.331 C 436.736 289.115 380.908 301.726 330.243 323.874 C 666.004 215.757 878.062 413.812 913.586 711.322 L 928.268 709.673 C 897.468 438.352 734.361 288.141 501.019 288.292 Z" transform="matrix(0.164656, 0.986351, -0.986351, 0.164656, 982.857266, -233.452063)" bx:origin="0.5 0.5"/>
      <path style="display: inline; fill: rgb(0, 0, 0); fill-opacity: 1; fill-rule: evenodd; stroke: none; stroke-width: 1px; stroke-linecap: butt; stroke-linejoin: miter; stroke-opacity: 1; opacity: 0.4;" id="path-15" d="M 192.954 376.521 C 191.115 376.522 189.277 376.537 187.433 376.561 C 128.674 377.344 72.845 389.958 22.181 412.103 C 357.94 303.989 569.987 502.045 605.505 799.553 L 620.188 797.905 C 589.392 526.584 426.295 376.369 192.954 376.521 Z" transform="matrix(-0.931404, -0.363988, 0.363988, -0.931404, 419.499006, 1182.599809)" bx:origin="0.5 0.5"/>
      <path style="display: inline; fill: rgb(0, 0, 0); fill-opacity: 1; fill-rule: evenodd; stroke: none; stroke-width: 1px; stroke-linecap: butt; stroke-linejoin: miter; stroke-opacity: 1; opacity: 1;" id="path-16" d="M 221.614 63.973 C 219.777 63.976 217.938 63.99 216.094 64.015 C 157.334 64.795 101.506 77.409 50.841 99.554 C 386.598 -8.559 598.651 189.497 634.173 487.001 L 648.854 485.354 C 618.058 214.037 454.954 63.824 221.614 63.973 Z" transform="matrix(0.750452, -0.660925, 0.660925, 0.750452, -70.803322, 290.920273)" bx:origin="0.5 0.5"/>
      <path style="display: inline; fill: rgb(0, 0, 0); fill-opacity: 1; fill-rule: evenodd; stroke: none; stroke-width: 1px; stroke-linecap: butt; stroke-linejoin: miter; stroke-opacity: 1; opacity: 0.4;" id="path-17" d="M 441.888 342.098 C 440.047 342.098 438.207 342.114 436.362 342.138 C 377.601 342.922 321.765 355.535 271.103 377.681 C 606.886 269.567 818.944 467.615 854.462 765.133 L 869.142 763.483 C 838.354 492.154 675.242 341.948 441.888 342.098 Z" transform="matrix(-0.356582, 0.934264, -0.934264, -0.356582, 1256.759493, 169.182552)" bx:origin="0.5 0.5"/>
      <g transform="matrix(0.762493, 0, 0, 0.762493, 19.294647, -716.322815)">
        <path d="M 566.466 1089.137 L 566.466 1148.222 C 565.867 1148.219 565.267 1148.217 564.667 1148.217 C 561.481 1148.217 558.31 1148.259 555.154 1148.341 L 555.154 1089.137 Z M 908.29 1477.146 L 956.987 1477.146 L 956.987 1488.458 L 908.569 1488.458 C 908.539 1484.693 908.447 1480.922 908.29 1477.146 Z M 566.466 1835.013 L 566.466 1876.467 L 555.154 1876.467 L 555.154 1834.886 C 558.318 1834.973 561.49 1835.017 564.667 1835.017 C 565.267 1835.017 565.867 1835.016 566.466 1835.013 Z M 220.775 1488.458 L 169.657 1488.458 L 169.657 1477.146 L 221.089 1477.146 C 220.921 1480.909 220.816 1484.68 220.775 1488.458 Z" style="fill: rgb(0, 0, 0); stroke: none;" bx:origin="0 0"/>
        <path d="M 760.121 1143.311 L 717.336 1217.417 C 715.72 1216.518 714.096 1215.632 712.465 1214.761 L 755.318 1140.537 Z M 830.122 1324.203 L 900.424 1283.614 L 903.198 1288.417 L 833.04 1328.923 C 832.08 1327.339 831.107 1325.766 830.122 1324.203 Z M 840.599 1641.137 L 903.197 1677.278 L 900.424 1682.082 L 837.911 1645.99 C 838.821 1644.38 839.717 1642.762 840.599 1641.137 Z M 725.168 1761.843 L 760.122 1822.385 L 755.318 1825.158 L 720.379 1764.641 C 721.985 1763.722 723.582 1762.789 725.168 1761.843 Z M 403.538 1760.932 L 366.456 1825.159 L 361.653 1822.386 L 398.802 1758.042 C 400.372 1759.019 401.951 1759.982 403.538 1760.932 Z M 289.58 1642.689 L 221.35 1682.082 L 218.577 1677.279 L 286.944 1637.807 C 287.807 1639.437 288.685 1641.065 289.58 1642.689 Z M 294.354 1332.168 L 218.576 1288.417 L 221.35 1283.614 L 297.213 1327.414 C 296.246 1328.99 295.293 1330.575 294.354 1332.168 Z M 406.079 1220.259 L 361.653 1143.311 L 366.457 1140.537 L 410.889 1217.495 C 409.276 1218.403 407.673 1219.324 406.079 1220.259 Z" style="fill: rgb(0, 0, 0); stroke: none;" bx:origin="0 0"/>
      </g>
    </g>
    <rect x="429.367" y="425.979" width="20.003" height="21.735" style="display: inline; opacity: 1; fill: rgb(0, 0, 0); fill-opacity: 1; stroke: none; stroke-width: 34.9; stroke-miterlimit: 4; stroke-dasharray: none; stroke-dashoffset: 0; stroke-opacity: 0.996078;" id="path-91" transform="matrix(1, 0, 0, 0.999999, -301.377075, -219.498434)"/>
    <rect x="446.853" y="25.462" width="25.99" height="25.99" style="display: inline; opacity: 1; fill: rgb(0, 0, 0); fill-opacity: 1; stroke: none; stroke-width: 34.9; stroke-miterlimit: 4; stroke-dasharray: none; stroke-dashoffset: 0; stroke-opacity: 0.996078;" id="path-93"/>
    <rect x="-135.956" y="605.141" width="39.851" height="39.851" style="display: inline; opacity: 1; fill: rgb(0, 0, 0); fill-opacity: 1; stroke: none; stroke-width: 34.9; stroke-miterlimit: 4; stroke-dasharray: none; stroke-dashoffset: 0; stroke-opacity: 0.996078;" id="path-94" transform="matrix(0.999999, 0, 0, 1, 846.176756, -394.956024)"/>
    <rect x="225.779" y="689.836" width="25.99" height="25.99" style="display: inline; opacity: 1; fill: rgb(0, 0, 0); fill-opacity: 1; stroke: none; stroke-width: 34.9; stroke-miterlimit: 4; stroke-dasharray: none; stroke-dashoffset: 0; stroke-opacity: 0.996078;" id="path-95"/>
    <rect x="594.013" y="737.142" width="20.792" height="22.525" style="display: inline; opacity: 1; fill: rgb(0, 0, 0); fill-opacity: 1; stroke: none; stroke-width: 34.9; stroke-miterlimit: 4; stroke-dasharray: none; stroke-dashoffset: 0; stroke-opacity: 0.996078;" id="path-96"/>
    <rect x="387.235" y="479.397" width="25.99" height="25.99" style="display: inline; opacity: 1; fill: rgb(0, 0, 0); fill-opacity: 1; stroke: none; stroke-width: 34.9; stroke-miterlimit: 4; stroke-dasharray: none; stroke-dashoffset: 0; stroke-opacity: 0.996078;" id="path-98" transform="matrix(1.000001, 0, 0, 0.999999, 365.274966, 79.295241)"/>
    <rect x="421.962" y="775.937" width="32.92" height="34.653" style="display: inline; opacity: 1; fill: rgb(0, 0, 0); fill-opacity: 1; stroke: none; stroke-width: 34.9; stroke-miterlimit: 4; stroke-dasharray: none; stroke-dashoffset: 0; stroke-opacity: 0.996078;" id="path-99"/>
    <rect x="-66.939" y="-568.978" width="20.867" height="20.792" style="display: inline; opacity: 1; fill: rgb(0, 0, 0); fill-opacity: 1; stroke: none; stroke-width: 34.9; stroke-miterlimit: 4; stroke-dasharray: none; stroke-dashoffset: 0; stroke-opacity: 0.996078;" id="path-101" transform="matrix(-1, 0, 0, 0.999997, 31.356928, 984.736306)"/>
  </g>
  <g transform="matrix(0.726449, 0, 0, 0.726449, -69.949951, -48.621319)">
    <path d="M 396.617 313.184 C 368.497 313.184 346.36 322.184 330.207 340.184 C 314.054 358.177 305.977 382.817 305.977 414.104 C 305.977 446.104 313.594 470.951 328.827 488.644 C 344.06 506.331 365.84 515.174 394.167 515.174 C 412.98 515.174 430.257 512.771 445.997 507.964 L 445.997 521.774 C 431.177 526.987 412.67 529.594 390.477 529.594 C 358.99 529.594 334.197 519.421 316.097 499.074 C 297.997 478.727 288.947 450.301 288.947 413.794 C 288.947 390.994 293.267 370.904 301.907 353.524 C 310.547 336.144 322.97 322.724 339.177 313.264 C 355.384 303.804 374.224 299.074 395.697 299.074 C 417.577 299.074 437.157 303.164 454.437 311.344 L 448.147 325.454 C 431.787 317.274 414.61 313.184 396.617 313.184 ZM 595.809 483.124 C 595.809 498.051 590.135 509.527 578.789 517.554 C 567.442 525.581 551.339 529.594 530.479 529.594 C 508.185 529.594 490.495 526.167 477.409 519.314 L 477.409 502.904 C 494.182 511.291 511.872 515.484 530.479 515.484 C 546.939 515.484 559.439 512.747 567.979 507.274 C 576.512 501.807 580.779 494.524 580.779 485.424 C 580.779 477.037 577.379 469.981 570.579 464.254 C 563.785 458.527 552.615 452.904 537.069 447.384 C 520.402 441.351 508.695 436.161 501.949 431.814 C 495.202 427.474 490.115 422.567 486.689 417.094 C 483.262 411.627 481.549 404.957 481.549 397.084 C 481.549 384.611 486.789 374.744 497.269 367.484 C 507.749 360.224 522.395 356.594 541.209 356.594 C 559.209 356.594 576.285 359.967 592.439 366.714 L 586.769 380.514 C 570.409 373.767 555.222 370.394 541.209 370.394 C 527.615 370.394 516.829 372.644 508.849 377.144 C 500.875 381.644 496.889 387.881 496.889 395.854 C 496.889 404.547 499.982 411.501 506.169 416.714 C 512.355 421.927 524.445 427.754 542.439 434.194 C 557.472 439.614 568.412 444.497 575.259 448.844 C 582.112 453.191 587.252 458.124 590.679 463.644 C 594.099 469.164 595.809 475.657 595.809 483.124 Z" transform="matrix(1, 0, 0, 1, 0, 0)" style="text-transform: none; fill: rgb(0, 0, 0);"/>
  </g>
</svg>